<?xml version="1.0" encoding="utf-8"?>
<!-- Generator: Adobe Illustrator 16.0.0, SVG Export Plug-In . SVG Version: 6.00 Build 0)  -->
<!DOCTYPE svg PUBLIC "-//W3C//DTD SVG 1.1//EN" "http://www.w3.org/Graphics/SVG/1.1/DTD/svg11.dtd">
<svg version="1.1" id="Capa_1" xmlns="http://www.w3.org/2000/svg" xmlns:xlink="http://www.w3.org/1999/xlink" x="0px" y="0px"
	 width="271.527px" height="17px" viewBox="-13.9 -0.871 271.527 17" enable-background="new -13.9 -0.871 271.527 17"
	 xml:space="preserve">
<g>
	<path fill="#FFFFFF" d="M-9.231,12.319c-0.676,0-1.299-0.125-1.863-0.38c-0.564-0.255-1.058-0.606-1.479-1.056
		c-0.422-0.448-0.749-0.962-0.98-1.541c-0.231-0.58-0.347-1.193-0.347-1.844c0-0.875,0.195-1.672,0.587-2.393
		c0.393-0.722,0.94-1.294,1.64-1.72c0.701-0.425,1.508-0.637,2.424-0.637c0.868,0,1.634,0.2,2.3,0.596
		c0.666,0.399,1.157,0.937,1.479,1.613l-1.176,0.375c-0.262-0.475-0.626-0.847-1.096-1.114c-0.469-0.266-0.989-0.4-1.56-0.4
		c-0.618,0-1.184,0.159-1.693,0.479c-0.511,0.318-0.917,0.754-1.221,1.309c-0.303,0.554-0.455,1.184-0.455,1.893
		c0,0.695,0.156,1.326,0.464,1.894c0.309,0.567,0.719,1.017,1.23,1.354c0.51,0.335,1.075,0.504,1.693,0.504
		c0.404,0,0.793-0.071,1.167-0.215c0.375-0.142,0.701-0.335,0.98-0.578c0.281-0.244,0.466-0.509,0.563-0.793l1.193,0.355
		c-0.166,0.441-0.442,0.836-0.829,1.186c-0.387,0.35-0.838,0.625-1.354,0.82C-8.081,12.222-8.636,12.319-9.231,12.319z"/>
	<path fill="#FFFFFF" d="M0.396,12.319c-0.667,0-1.281-0.125-1.845-0.38c-0.565-0.255-1.052-0.603-1.462-1.047
		c-0.409-0.441-0.729-0.949-0.954-1.523C-4.091,8.795-4.203,8.19-4.203,7.552c0-0.662,0.112-1.279,0.338-1.852
		c0.225-0.573,0.546-1.081,0.963-1.525c0.416-0.442,0.905-0.791,1.47-1.045c0.566-0.254,1.181-0.38,1.846-0.38
		c0.665,0,1.277,0.126,1.836,0.38c0.558,0.255,1.044,0.603,1.461,1.045C4.126,4.619,4.448,5.127,4.674,5.7
		C4.9,6.273,5.012,6.89,5.012,7.552c0,0.639-0.113,1.243-0.338,1.817s-0.544,1.082-0.954,1.523
		c-0.409,0.444-0.896,0.792-1.461,1.047C1.695,12.194,1.072,12.319,0.396,12.319z M-2.974,7.57c0,0.683,0.151,1.307,0.455,1.867
		c0.303,0.562,0.71,1.004,1.221,1.328c0.51,0.324,1.075,0.487,1.694,0.487c0.618,0,1.183-0.165,1.693-0.496
		c0.51-0.329,0.921-0.781,1.23-1.354C3.627,8.83,3.782,8.207,3.782,7.535c0-0.684-0.155-1.31-0.463-1.876
		c-0.309-0.566-0.72-1.014-1.23-1.345S1.014,3.819,0.396,3.819c-0.619,0-1.181,0.17-1.686,0.512
		C-1.794,4.674-2.201,5.125-2.51,5.686S-2.974,6.875-2.974,7.57z"/>
	<path fill="#FFFFFF" d="M14.851,12.142h-1.212V6.988c0-1.087-0.16-1.88-0.481-2.383c-0.321-0.501-0.827-0.752-1.515-0.752
		c-0.476,0-0.945,0.116-1.408,0.345C9.772,4.429,9.365,4.741,9.013,5.137C8.664,5.531,8.409,5.982,8.256,6.489v5.655H7.044V2.891
		H8.15V5c0.249-0.449,0.576-0.842,0.98-1.18c0.404-0.336,0.86-0.6,1.372-0.789c0.51-0.188,1.04-0.283,1.587-0.283
		c0.51,0,0.944,0.095,1.301,0.283c0.356,0.189,0.641,0.458,0.855,0.808c0.214,0.349,0.369,0.768,0.463,1.258
		c0.095,0.49,0.143,1.037,0.143,1.64V12.142z"/>
	<path fill="#FFFFFF" d="M21.803,11.768c-0.095,0.036-0.243,0.103-0.446,0.195c-0.201,0.096-0.445,0.179-0.73,0.252
		c-0.286,0.07-0.595,0.106-0.927,0.106c-0.346,0-0.669-0.066-0.972-0.197c-0.304-0.132-0.544-0.332-0.722-0.6
		c-0.179-0.269-0.268-0.6-0.268-0.993V3.853h-1.282V2.891h1.282v-3.137h1.212v3.137h2.14v0.962h-2.14v6.34
		c0.024,0.336,0.146,0.586,0.366,0.754c0.22,0.166,0.473,0.251,0.759,0.251c0.332,0,0.634-0.058,0.908-0.169
		c0.274-0.112,0.44-0.193,0.499-0.241L21.803,11.768z"/>
	<path fill="#FFFFFF" d="M22.569,9.485c0-0.579,0.167-1.076,0.5-1.496c0.332-0.419,0.793-0.745,1.381-0.974
		c0.589-0.23,1.269-0.346,2.041-0.346c0.452,0,0.922,0.035,1.408,0.106c0.487,0.072,0.921,0.178,1.301,0.321V6.315
		c0-0.779-0.232-1.399-0.695-1.86s-1.105-0.69-1.924-0.69c-0.5,0-0.989,0.091-1.471,0.275c-0.481,0.185-0.984,0.455-1.506,0.813
		L23.14,3.998c0.606-0.417,1.2-0.729,1.782-0.938c0.582-0.208,1.176-0.311,1.783-0.311c1.14,0,2.043,0.324,2.709,0.974
		c0.666,0.649,0.998,1.547,0.998,2.692v4.268c0,0.166,0.036,0.288,0.108,0.363c0.07,0.076,0.184,0.122,0.338,0.133v0.962
		c-0.13,0.013-0.243,0.024-0.338,0.036c-0.095,0.012-0.167,0.012-0.214,0c-0.297-0.012-0.523-0.108-0.678-0.285
		c-0.154-0.179-0.237-0.369-0.249-0.571l-0.018-0.677c-0.417,0.533-0.958,0.948-1.623,1.238c-0.667,0.291-1.343,0.437-2.032,0.437
		c-0.595,0-1.131-0.125-1.613-0.38c-0.481-0.255-0.855-0.597-1.123-1.027C22.703,10.481,22.569,10.005,22.569,9.485z M28.79,10.192
		c0.132-0.165,0.232-0.324,0.304-0.479c0.07-0.152,0.106-0.286,0.106-0.405V7.966c-0.404-0.152-0.823-0.271-1.257-0.353
		c-0.434-0.081-0.872-0.123-1.31-0.123c-0.867,0-1.569,0.171-2.103,0.512c-0.536,0.342-0.803,0.808-0.803,1.395
		c0,0.342,0.089,0.663,0.268,0.963c0.179,0.302,0.441,0.547,0.785,0.742s0.749,0.292,1.212,0.292c0.582,0,1.125-0.112,1.631-0.337
		C28.128,10.834,28.518,10.547,28.79,10.192z"/>
	<path fill="#FFFFFF" d="M37.062,12.319c-0.678,0-1.299-0.125-1.864-0.38c-0.564-0.255-1.057-0.606-1.479-1.056
		c-0.422-0.448-0.75-0.962-0.981-1.541c-0.232-0.58-0.347-1.193-0.347-1.844c0-0.875,0.196-1.672,0.589-2.393
		c0.391-0.72,0.938-1.294,1.639-1.72c0.701-0.425,1.508-0.637,2.424-0.637c0.868,0,1.634,0.2,2.3,0.596
		c0.666,0.399,1.158,0.937,1.479,1.613l-1.177,0.375c-0.261-0.475-0.626-0.847-1.096-1.114c-0.469-0.266-0.99-0.4-1.56-0.4
		c-0.618,0-1.183,0.159-1.693,0.479c-0.51,0.318-0.918,0.755-1.222,1.31C33.773,6.161,33.62,6.791,33.62,7.5
		c0,0.697,0.156,1.327,0.464,1.894c0.309,0.566,0.719,1.017,1.23,1.354c0.51,0.337,1.075,0.505,1.693,0.505
		c0.404,0,0.794-0.072,1.168-0.213c0.375-0.145,0.701-0.336,0.98-0.58c0.28-0.244,0.466-0.509,0.562-0.794l1.195,0.355
		c-0.167,0.441-0.443,0.836-0.829,1.186c-0.388,0.35-0.837,0.625-1.354,0.82C38.211,12.222,37.655,12.319,37.062,12.319z"/>
	<path fill="#FFFFFF" d="M47.276,11.768c-0.096,0.036-0.245,0.103-0.446,0.195c-0.202,0.096-0.447,0.179-0.731,0.252
		c-0.285,0.07-0.595,0.106-0.927,0.106c-0.345,0-0.667-0.066-0.971-0.197c-0.302-0.132-0.543-0.332-0.721-0.6
		c-0.179-0.269-0.268-0.6-0.268-0.993V3.853h-1.284V2.891h1.284v-3.137h1.212v3.137h2.139v0.962h-2.139v6.34
		c0.024,0.336,0.145,0.586,0.366,0.754c0.219,0.166,0.472,0.251,0.757,0.251c0.333,0,0.636-0.058,0.91-0.169
		c0.274-0.112,0.439-0.193,0.5-0.241L47.276,11.768z"/>
	<path fill="#FFFFFF" d="M52.587,12.319c-0.666,0-1.28-0.125-1.846-0.38c-0.564-0.255-1.051-0.603-1.461-1.047
		c-0.41-0.441-0.729-0.95-0.954-1.523C48.1,8.795,47.988,8.19,47.988,7.552c0-0.662,0.112-1.279,0.338-1.852
		c0.225-0.573,0.546-1.081,0.963-1.525c0.416-0.442,0.906-0.791,1.471-1.045c0.564-0.254,1.179-0.38,1.844-0.38
		c0.666,0,1.277,0.126,1.836,0.38c0.558,0.255,1.045,0.603,1.46,1.045c0.416,0.444,0.737,0.952,0.963,1.525
		c0.227,0.573,0.34,1.19,0.34,1.852c0,0.639-0.114,1.243-0.34,1.817c-0.225,0.574-0.542,1.082-0.953,1.523
		c-0.41,0.444-0.898,0.792-1.462,1.047S53.265,12.319,52.587,12.319z M49.218,7.57c0,0.683,0.153,1.307,0.455,1.867
		c0.304,0.562,0.711,1.004,1.222,1.328c0.51,0.324,1.075,0.487,1.693,0.487c0.618,0,1.184-0.165,1.694-0.496
		c0.51-0.329,0.92-0.781,1.229-1.354c0.309-0.572,0.463-1.195,0.463-1.867c0-0.684-0.155-1.31-0.463-1.876
		c-0.31-0.566-0.719-1.014-1.229-1.345s-1.076-0.495-1.694-0.495c-0.618,0-1.18,0.17-1.684,0.512
		c-0.506,0.343-0.913,0.794-1.222,1.355C49.373,6.247,49.218,6.875,49.218,7.57z"/>
	<path fill="#FFFFFF" d="M65.331,1.393c0.88,0,1.707,0.164,2.486,0.491c0.779,0.328,1.467,0.791,2.068,1.391
		c0.601,0.6,1.073,1.316,1.417,2.147c0.345,0.833,0.517,1.753,0.517,2.764c0,0.202-0.015,0.475-0.044,0.818
		c-0.03,0.345-0.092,0.714-0.188,1.105c-0.094,0.393-0.234,0.764-0.418,1.113c-0.185,0.351-0.437,0.639-0.757,0.864
		s-0.719,0.34-1.194,0.34c-0.392,0-0.693-0.077-0.9-0.232c-0.208-0.155-0.352-0.357-0.428-0.605c-0.077-0.25-0.134-0.518-0.17-0.803
		c-0.321,0.346-0.745,0.642-1.273,0.892c-0.53,0.248-1.108,0.375-1.739,0.375c-0.843,0-1.5-0.227-1.969-0.679
		c-0.47-0.45-0.704-1.021-0.704-1.71c0-0.605,0.166-1.082,0.498-1.427c0.332-0.344,0.752-0.589,1.256-0.738
		c0.505-0.148,1.02-0.223,1.543-0.223c0.522,0,0.983,0.051,1.381,0.151c0.398,0.102,0.691,0.188,0.882,0.259
		c0-0.571-0.063-1.07-0.188-1.498c-0.124-0.428-0.347-0.764-0.667-1.007c-0.321-0.244-0.772-0.366-1.355-0.366
		c-0.463,0-0.91,0.075-1.337,0.223c-0.428,0.149-0.815,0.353-1.159,0.615l-0.321-0.695c0.428-0.285,0.885-0.51,1.374-0.676
		c0.487-0.166,1.003-0.25,1.55-0.25c0.665,0,1.191,0.108,1.577,0.321c0.386,0.214,0.675,0.502,0.865,0.864
		c0.19,0.362,0.314,0.758,0.374,1.184c0.059,0.429,0.089,0.857,0.089,1.284v2.3c0,0.345,0.021,0.653,0.062,0.927
		c0.041,0.273,0.128,0.484,0.259,0.632c0.129,0.148,0.333,0.223,0.606,0.223c0.369,0,0.673-0.125,0.917-0.375
		c0.243-0.25,0.434-0.564,0.571-0.944c0.137-0.381,0.231-0.779,0.285-1.194c0.053-0.416,0.081-0.784,0.081-1.104
		c0-0.867-0.147-1.672-0.438-2.416c-0.291-0.744-0.704-1.394-1.239-1.952s-1.158-0.993-1.872-1.308C66.918,2.157,66.145,2,65.313,2
		c-0.819,0-1.586,0.148-2.299,0.446c-0.714,0.297-1.343,0.716-1.89,1.256c-0.547,0.54-0.975,1.184-1.284,1.926
		c-0.308,0.742-0.463,1.547-0.463,2.414c0,0.843,0.144,1.635,0.437,2.371c0.291,0.736,0.701,1.384,1.229,1.942
		s1.15,0.996,1.862,1.311c0.714,0.313,1.485,0.474,2.317,0.474c0.5,0,0.969-0.063,1.409-0.188c0.44-0.126,0.88-0.289,1.319-0.491
		l0.231,0.571c-0.476,0.237-0.966,0.416-1.471,0.533c-0.506,0.119-1.007,0.179-1.506,0.179c-0.891,0-1.725-0.166-2.504-0.499
		c-0.779-0.333-1.465-0.798-2.059-1.398c-0.594-0.601-1.061-1.31-1.4-2.13c-0.338-0.82-0.507-1.713-0.507-2.675
		c0-1.01,0.181-1.923,0.543-2.736c0.362-0.813,0.853-1.512,1.471-2.095c0.617-0.582,1.322-1.031,2.112-1.345
		C63.652,1.551,64.475,1.393,65.331,1.393z M66.418,10.895c0.332-0.155,0.582-0.331,0.749-0.526c0.167-0.195,0.276-0.406,0.33-0.633
		c0.053-0.224,0.081-0.444,0.081-0.659V8.363c-0.155-0.012-0.431-0.08-0.829-0.206C66.35,8.031,65.865,7.97,65.296,7.97
		c-0.417,0-0.812,0.048-1.187,0.143c-0.374,0.095-0.676,0.264-0.908,0.509c-0.231,0.244-0.348,0.579-0.348,1.007
		c0,0.334,0.083,0.623,0.25,0.873c0.166,0.25,0.392,0.441,0.677,0.579c0.285,0.137,0.611,0.207,0.98,0.207
		c0.285,0,0.577-0.04,0.874-0.115C65.932,11.093,66.193,11.002,66.418,10.895z"/>
	<path fill="#FFFFFF" d="M73.406,9.485c0-0.579,0.166-1.076,0.498-1.496c0.332-0.419,0.793-0.745,1.382-0.974
		c0.588-0.23,1.269-0.346,2.041-0.346c0.451,0,0.921,0.035,1.407,0.106c0.487,0.072,0.922,0.178,1.301,0.321V6.315
		c0-0.779-0.231-1.399-0.695-1.86s-1.104-0.69-1.925-0.69c-0.5,0-0.989,0.091-1.471,0.275c-0.48,0.185-0.983,0.455-1.505,0.813
		l-0.463-0.855c0.606-0.417,1.2-0.729,1.782-0.938c0.582-0.208,1.177-0.311,1.783-0.311c1.14,0,2.043,0.324,2.709,0.974
		c0.666,0.649,0.999,1.547,0.999,2.692v4.268c0,0.166,0.035,0.288,0.106,0.363c0.071,0.076,0.184,0.122,0.338,0.133v0.962
		c-0.131,0.013-0.244,0.024-0.338,0.036c-0.094,0.012-0.167,0.012-0.214,0c-0.297-0.012-0.523-0.108-0.676-0.285
		c-0.156-0.179-0.238-0.369-0.25-0.571l-0.018-0.677c-0.417,0.533-0.958,0.948-1.622,1.238c-0.666,0.291-1.344,0.437-2.032,0.437
		c-0.595,0-1.131-0.125-1.613-0.38c-0.481-0.255-0.855-0.597-1.123-1.027C73.539,10.481,73.406,10.005,73.406,9.485z M79.627,10.192
		c0.13-0.165,0.232-0.324,0.302-0.479c0.072-0.152,0.106-0.286,0.106-0.405V7.966c-0.403-0.152-0.822-0.271-1.256-0.353
		c-0.434-0.081-0.87-0.123-1.31-0.123c-0.868,0-1.569,0.171-2.104,0.512c-0.535,0.342-0.801,0.808-0.801,1.395
		c0,0.342,0.088,0.663,0.266,0.963c0.178,0.302,0.44,0.547,0.785,0.742s0.749,0.292,1.212,0.292c0.582,0,1.126-0.112,1.63-0.337
		C78.964,10.834,79.354,10.547,79.627,10.192z"/>
	<path fill="#FFFFFF" d="M84.119,14.994c0.167,0.013,0.327,0.021,0.482,0.026c0.155,0.006,0.268-0.002,0.338-0.026
		c0.143-0.023,0.279-0.106,0.411-0.248c0.13-0.144,0.285-0.416,0.463-0.817c0.179-0.401,0.428-0.995,0.749-1.776l-4.046-9.26h1.283
		l3.406,8.015l3.136-8.015h1.212L86.74,14.838c-0.083,0.226-0.208,0.436-0.374,0.631c-0.167,0.194-0.371,0.349-0.615,0.463
		c-0.245,0.111-0.544,0.174-0.901,0.187c-0.107,0.011-0.218,0.015-0.33,0.009c-0.113-0.007-0.247-0.021-0.402-0.045V14.994
		L84.119,14.994z"/>
	<path fill="#FFFFFF" d="M92.302,7.552c0-0.874,0.182-1.674,0.543-2.402c0.362-0.727,0.865-1.309,1.507-1.745
		c0.642-0.438,1.372-0.656,2.192-0.656c0.772,0,1.464,0.205,2.077,0.615c0.613,0.41,1.09,0.905,1.435,1.488v-5.724h1.212v11.552
		c0,0.165,0.036,0.287,0.107,0.363c0.071,0.078,0.179,0.124,0.321,0.135v0.962c-0.237,0.036-0.421,0.048-0.553,0.036
		c-0.249-0.012-0.47-0.114-0.66-0.304c-0.189-0.189-0.285-0.397-0.285-0.623v-0.908c-0.369,0.604-0.868,1.087-1.498,1.442
		c-0.629,0.356-1.283,0.534-1.96,0.534c-0.642,0-1.233-0.13-1.773-0.391c-0.542-0.258-1.011-0.614-1.408-1.063
		c-0.398-0.449-0.708-0.96-0.927-1.534C92.41,8.761,92.302,8.167,92.302,7.552z M100.055,8.968v-2.85
		c-0.155-0.424-0.404-0.811-0.749-1.159c-0.346-0.349-0.734-0.626-1.168-0.832c-0.433-0.206-0.864-0.309-1.291-0.309
		c-0.5,0-0.952,0.104-1.356,0.309c-0.403,0.207-0.752,0.488-1.042,0.841c-0.291,0.354-0.513,0.755-0.667,1.203
		c-0.156,0.449-0.232,0.908-0.232,1.38c0,0.496,0.086,0.967,0.258,1.416s0.419,0.848,0.74,1.195c0.321,0.349,0.69,0.616,1.105,0.806
		c0.417,0.188,0.867,0.283,1.354,0.283c0.309,0,0.63-0.06,0.963-0.177c0.332-0.118,0.65-0.28,0.953-0.487
		c0.304-0.207,0.556-0.451,0.759-0.734C99.883,9.57,100.008,9.273,100.055,8.968z"/>
	<path fill="#FFFFFF" d="M108.041,12.319c-0.678,0-1.299-0.125-1.863-0.38c-0.566-0.255-1.059-0.606-1.48-1.056
		c-0.422-0.448-0.748-0.962-0.979-1.541c-0.232-0.58-0.349-1.193-0.349-1.844c0-0.875,0.196-1.672,0.589-2.393
		c0.392-0.72,0.938-1.294,1.64-1.72c0.701-0.425,1.509-0.637,2.424-0.637c0.868,0,1.635,0.2,2.3,0.596
		c0.666,0.399,1.159,0.937,1.479,1.613l-1.177,0.375c-0.261-0.475-0.626-0.847-1.096-1.114c-0.468-0.266-0.989-0.4-1.56-0.4
		c-0.618,0-1.182,0.159-1.693,0.479c-0.51,0.318-0.918,0.755-1.221,1.31c-0.303,0.554-0.454,1.184-0.454,1.893
		c0,0.697,0.155,1.327,0.463,1.894c0.308,0.566,0.718,1.017,1.229,1.354c0.511,0.337,1.075,0.505,1.694,0.505
		c0.403,0,0.793-0.072,1.167-0.213c0.374-0.145,0.701-0.336,0.98-0.58s0.465-0.509,0.562-0.794l1.194,0.355
		c-0.167,0.441-0.443,0.836-0.829,1.186c-0.388,0.35-0.838,0.625-1.355,0.82C109.19,12.222,108.634,12.319,108.041,12.319z"/>
	<path fill="#FFFFFF" d="M117.666,12.319c-0.666,0-1.281-0.125-1.845-0.38c-0.565-0.255-1.051-0.603-1.461-1.047
		c-0.41-0.441-0.729-0.95-0.954-1.523c-0.226-0.574-0.338-1.179-0.338-1.817c0-0.662,0.112-1.279,0.338-1.852
		c0.226-0.573,0.546-1.081,0.963-1.525c0.416-0.442,0.907-0.791,1.471-1.045c0.564-0.254,1.179-0.38,1.844-0.38
		c0.666,0,1.277,0.126,1.836,0.38c0.559,0.255,1.045,0.603,1.461,1.045c0.416,0.444,0.737,0.952,0.963,1.525
		c0.226,0.573,0.339,1.19,0.339,1.852c0,0.639-0.114,1.243-0.339,1.817c-0.226,0.574-0.543,1.082-0.953,1.523
		c-0.41,0.444-0.897,0.792-1.462,1.047C118.964,12.194,118.344,12.319,117.666,12.319z M114.297,7.57
		c0,0.683,0.152,1.307,0.455,1.867c0.303,0.562,0.71,1.004,1.222,1.328c0.51,0.324,1.075,0.487,1.693,0.487
		c0.618,0,1.184-0.165,1.694-0.496c0.51-0.329,0.92-0.781,1.229-1.354c0.309-0.572,0.463-1.195,0.463-1.867
		c0-0.684-0.155-1.31-0.463-1.876c-0.309-0.566-0.719-1.014-1.229-1.345s-1.076-0.495-1.694-0.495c-0.618,0-1.179,0.17-1.684,0.512
		c-0.506,0.343-0.913,0.794-1.222,1.355C114.452,6.247,114.297,6.875,114.297,7.57z"/>
	<path fill="#FFFFFF" d="M132.12,12.142h-1.212V6.988c0-1.087-0.159-1.88-0.48-2.383c-0.321-0.501-0.827-0.753-1.516-0.753
		c-0.476,0-0.944,0.116-1.408,0.346c-0.463,0.23-0.869,0.542-1.22,0.938c-0.351,0.395-0.604,0.846-0.759,1.353v5.653h-1.213V2.891
		h1.106V5c0.249-0.449,0.577-0.842,0.98-1.18c0.404-0.336,0.861-0.6,1.372-0.789c0.511-0.188,1.039-0.283,1.586-0.283
		c0.512,0,0.945,0.095,1.302,0.283c0.357,0.189,0.642,0.458,0.855,0.808c0.215,0.349,0.368,0.768,0.464,1.258
		c0.095,0.49,0.142,1.037,0.142,1.64V12.142z"/>
	<path fill="#FFFFFF" d="M137.754,12.319c-0.762,0-1.468-0.123-2.122-0.373c-0.653-0.251-1.218-0.629-1.692-1.141l0.498-0.856
		c0.523,0.489,1.049,0.842,1.577,1.061c0.53,0.22,1.093,0.33,1.687,0.33c0.723,0,1.312-0.145,1.764-0.434
		c0.45-0.288,0.678-0.703,0.678-1.245c0-0.366-0.11-0.646-0.33-0.843c-0.221-0.195-0.534-0.354-0.945-0.479
		c-0.409-0.125-0.899-0.256-1.47-0.398c-0.642-0.177-1.18-0.364-1.614-0.559c-0.435-0.196-0.76-0.442-0.98-0.745
		c-0.22-0.301-0.329-0.693-0.329-1.178c0-0.603,0.151-1.102,0.455-1.499c0.303-0.396,0.719-0.697,1.248-0.905
		c0.527-0.207,1.119-0.31,1.773-0.31c0.712,0,1.344,0.114,1.89,0.339c0.545,0.226,0.992,0.54,1.335,0.945l-0.587,0.82
		c-0.333-0.38-0.728-0.663-1.186-0.847c-0.458-0.185-0.967-0.276-1.524-0.276c-0.38,0-0.743,0.05-1.086,0.15
		c-0.345,0.1-0.628,0.265-0.847,0.496c-0.222,0.231-0.331,0.546-0.331,0.948c0,0.331,0.083,0.587,0.249,0.77
		c0.167,0.184,0.416,0.338,0.749,0.461c0.332,0.124,0.744,0.256,1.23,0.398c0.701,0.189,1.313,0.38,1.836,0.577
		c0.521,0.195,0.927,0.445,1.212,0.753c0.284,0.306,0.429,0.737,0.429,1.293c0,0.862-0.328,1.534-0.981,2.02
		C139.685,12.077,138.823,12.319,137.754,12.319z"/>
	<path fill="#FFFFFF" d="M143.227,8.324V2.891h1.212v5.219c0,1.053,0.182,1.84,0.544,2.361c0.362,0.52,0.899,0.78,1.612,0.78
		c0.474,0,0.936-0.104,1.382-0.311s0.841-0.502,1.186-0.886c0.345-0.385,0.606-0.831,0.783-1.34V2.891h1.213v7.792
		c0,0.164,0.035,0.286,0.107,0.362c0.07,0.078,0.179,0.122,0.32,0.133v0.964c-0.142,0.011-0.255,0.02-0.339,0.026
		c-0.083,0.005-0.16,0.009-0.231,0.009c-0.237-0.024-0.442-0.118-0.615-0.284c-0.172-0.167-0.264-0.368-0.276-0.604l-0.035-1.242
		c-0.403,0.711-0.954,1.268-1.648,1.67c-0.695,0.402-1.446,0.603-2.256,0.603c-0.976,0-1.71-0.336-2.21-1.012
		C143.476,10.634,143.227,9.64,143.227,8.324z"/>
	<path fill="#FFFFFF" d="M153.956-0.871h1.213v10.973c0,0.469,0.083,0.771,0.249,0.915s0.369,0.215,0.606,0.215
		c0.214,0,0.428-0.024,0.642-0.071c0.214-0.048,0.397-0.095,0.553-0.142l0.214,0.981c-0.226,0.093-0.503,0.17-0.829,0.23
		c-0.325,0.058-0.608,0.088-0.846,0.088c-0.548,0-0.984-0.163-1.312-0.484s-0.49-0.764-0.49-1.326V-0.871L153.956-0.871z"/>
	<path fill="#FFFFFF" d="M163.208,11.768c-0.096,0.036-0.244,0.103-0.445,0.195c-0.202,0.096-0.445,0.179-0.73,0.252
		c-0.286,0.07-0.596,0.106-0.927,0.106c-0.347,0-0.67-0.066-0.973-0.197c-0.303-0.132-0.544-0.332-0.722-0.6
		c-0.178-0.269-0.267-0.6-0.267-0.993V3.853h-1.284V2.891h1.284v-3.137h1.212v3.137h2.139v0.962h-2.139v6.34
		c0.022,0.336,0.145,0.586,0.365,0.754c0.219,0.166,0.472,0.251,0.757,0.251c0.332,0,0.636-0.058,0.908-0.169
		c0.275-0.112,0.441-0.193,0.5-0.241L163.208,11.768z"/>
	<path fill="#FFFFFF" d="M168.521,12.319c-0.667,0-1.281-0.125-1.846-0.38s-1.052-0.603-1.462-1.047
		c-0.409-0.441-0.728-0.95-0.953-1.523c-0.227-0.574-0.338-1.179-0.338-1.817c0-0.662,0.111-1.279,0.338-1.852
		c0.226-0.573,0.547-1.081,0.963-1.525c0.415-0.442,0.905-0.791,1.47-1.045c0.564-0.254,1.181-0.38,1.846-0.38
		c0.664,0,1.275,0.126,1.836,0.38c0.559,0.255,1.044,0.603,1.46,1.045c0.418,0.444,0.738,0.952,0.964,1.525
		c0.227,0.573,0.34,1.19,0.34,1.852c0,0.639-0.113,1.243-0.34,1.817c-0.226,0.574-0.544,1.082-0.952,1.523
		c-0.412,0.444-0.899,0.792-1.463,1.047C169.819,12.194,169.197,12.319,168.521,12.319z M165.151,7.57
		c0,0.683,0.151,1.307,0.455,1.867c0.303,0.562,0.71,1.004,1.221,1.328c0.51,0.324,1.075,0.487,1.694,0.487
		c0.618,0,1.183-0.165,1.692-0.496c0.512-0.329,0.92-0.781,1.23-1.354c0.309-0.572,0.464-1.195,0.464-1.867
		c0-0.684-0.156-1.31-0.464-1.876c-0.31-0.566-0.719-1.014-1.23-1.345c-0.51-0.331-1.074-0.495-1.692-0.495
		c-0.619,0-1.181,0.17-1.686,0.512c-0.506,0.343-0.912,0.794-1.221,1.355S165.151,6.875,165.151,7.57z"/>
	<path fill="#FFFFFF" d="M179.804,3.925c-0.81,0.023-1.519,0.249-2.131,0.677c-0.612,0.428-1.045,1.015-1.293,1.765v5.775h-1.212
		V2.891h1.14v2.193c0.32-0.654,0.747-1.184,1.276-1.587c0.528-0.403,1.09-0.629,1.684-0.677c0.119-0.012,0.224-0.018,0.313-0.018
		c0.088,0,0.162,0.006,0.223,0.018V3.925L179.804,3.925z"/>
	<path fill="#FFFFFF" d="M185.15,12.319c-0.667,0-1.283-0.125-1.854-0.382c-0.57-0.255-1.063-0.603-1.479-1.047
		c-0.416-0.443-0.74-0.955-0.973-1.536c-0.231-0.581-0.347-1.202-0.347-1.865c0-0.861,0.199-1.651,0.597-2.371
		c0.397-0.72,0.948-1.294,1.648-1.726c0.702-0.43,1.498-0.645,2.389-0.645c0.915,0,1.714,0.217,2.397,0.655s1.222,1.012,1.612,1.726
		c0.394,0.715,0.589,1.496,0.589,2.345c0,0.095,0,0.186,0,0.275c0,0.088-0.007,0.156-0.019,0.204h-7.95
		c0.061,0.664,0.246,1.25,0.561,1.765c0.315,0.514,0.726,0.922,1.229,1.223c0.506,0.303,1.055,0.452,1.648,0.452
		c0.605,0,1.18-0.153,1.72-0.463c0.542-0.309,0.919-0.713,1.133-1.212l1.052,0.285c-0.189,0.439-0.48,0.838-0.873,1.194
		c-0.393,0.355-0.853,0.631-1.381,0.829C186.323,12.222,185.756,12.319,185.15,12.319z M181.727,7.08h6.863
		c-0.047-0.671-0.229-1.258-0.544-1.764c-0.315-0.506-0.724-0.903-1.229-1.191c-0.505-0.287-1.062-0.432-1.667-0.432
		c-0.606,0-1.158,0.145-1.657,0.432c-0.499,0.289-0.906,0.688-1.222,1.2C181.956,5.836,181.775,6.421,181.727,7.08z"/>
	<path fill="#FFFFFF" d="M194.652,12.319c-0.763,0-1.469-0.123-2.121-0.373c-0.653-0.251-1.218-0.629-1.695-1.141l0.499-0.856
		c0.524,0.489,1.049,0.842,1.578,1.061c0.528,0.22,1.092,0.33,1.685,0.33c0.724,0,1.314-0.145,1.765-0.434
		c0.451-0.288,0.678-0.703,0.678-1.245c0-0.366-0.11-0.646-0.33-0.843c-0.22-0.195-0.535-0.354-0.946-0.479
		c-0.408-0.123-0.899-0.256-1.469-0.398c-0.642-0.177-1.181-0.364-1.614-0.559c-0.433-0.196-0.76-0.442-0.979-0.745
		c-0.22-0.301-0.33-0.693-0.33-1.178c0-0.603,0.151-1.102,0.455-1.499c0.302-0.396,0.719-0.697,1.246-0.905
		c0.528-0.207,1.121-0.31,1.775-0.31c0.713,0,1.343,0.114,1.888,0.339c0.547,0.226,0.993,0.54,1.336,0.945l-0.585,0.82
		c-0.335-0.38-0.729-0.663-1.187-0.847c-0.458-0.185-0.967-0.276-1.524-0.276c-0.381,0-0.742,0.05-1.086,0.15
		c-0.347,0.1-0.629,0.265-0.848,0.496c-0.222,0.231-0.331,0.546-0.331,0.948c0,0.331,0.084,0.587,0.251,0.77
		c0.165,0.184,0.415,0.338,0.748,0.461c0.333,0.124,0.743,0.256,1.229,0.398c0.703,0.189,1.314,0.38,1.837,0.577
		c0.522,0.195,0.928,0.445,1.213,0.753c0.284,0.306,0.427,0.737,0.427,1.293c0,0.862-0.327,1.534-0.98,2.02
		C196.58,12.077,195.721,12.319,194.652,12.319z"/>
	<path fill="#FFFFFF" d="M200.032,12.142v-1.748h1.053v1.748H200.032z"/>
	<path fill="#FFFFFF" d="M207.253,12.319c-0.677,0-1.299-0.125-1.862-0.38c-0.564-0.255-1.059-0.606-1.479-1.056
		c-0.423-0.448-0.75-0.962-0.981-1.541c-0.232-0.58-0.349-1.193-0.349-1.844c0-0.875,0.197-1.672,0.588-2.393
		c0.394-0.72,0.938-1.294,1.64-1.72c0.702-0.425,1.51-0.637,2.425-0.637c0.866,0,1.635,0.2,2.3,0.596
		c0.665,0.399,1.158,0.937,1.479,1.613l-1.177,0.375c-0.262-0.475-0.629-0.847-1.096-1.114c-0.471-0.266-0.991-0.4-1.561-0.4
		c-0.618,0-1.183,0.159-1.692,0.479c-0.513,0.318-0.919,0.755-1.223,1.31c-0.303,0.554-0.454,1.184-0.454,1.893
		c0,0.697,0.154,1.327,0.464,1.894c0.307,0.566,0.718,1.017,1.229,1.354c0.51,0.337,1.075,0.505,1.693,0.505
		c0.404,0,0.794-0.072,1.168-0.213c0.375-0.145,0.701-0.336,0.98-0.58c0.278-0.244,0.466-0.509,0.562-0.794l1.194,0.355
		c-0.168,0.441-0.443,0.836-0.829,1.186s-0.837,0.625-1.355,0.82C208.403,12.222,207.847,12.319,207.253,12.319z"/>
	<path fill="#FFFFFF" d="M216.877,12.319c-0.666,0-1.279-0.125-1.844-0.38c-0.565-0.255-1.051-0.603-1.462-1.047
		c-0.41-0.441-0.729-0.95-0.953-1.523c-0.225-0.574-0.34-1.179-0.34-1.817c0-0.662,0.115-1.279,0.34-1.852
		c0.225-0.573,0.546-1.081,0.962-1.525c0.415-0.442,0.905-0.791,1.471-1.045c0.563-0.254,1.179-0.38,1.844-0.38
		c0.666,0,1.276,0.126,1.836,0.38c0.558,0.255,1.046,0.603,1.463,1.045c0.416,0.444,0.736,0.952,0.961,1.525
		c0.227,0.573,0.341,1.19,0.341,1.852c0,0.639-0.114,1.243-0.341,1.817c-0.225,0.574-0.543,1.082-0.952,1.523
		c-0.41,0.444-0.897,0.792-1.463,1.047C218.176,12.194,217.556,12.319,216.877,12.319z M213.509,7.57
		c0,0.683,0.152,1.307,0.455,1.867c0.303,0.562,0.711,1.004,1.222,1.328s1.075,0.487,1.692,0.487c0.62,0,1.185-0.165,1.695-0.496
		c0.511-0.329,0.921-0.781,1.229-1.354c0.31-0.572,0.464-1.195,0.464-1.867c0-0.684-0.155-1.31-0.464-1.876
		c-0.308-0.566-0.719-1.014-1.229-1.345s-1.075-0.495-1.695-0.495c-0.617,0-1.179,0.17-1.684,0.512
		c-0.506,0.343-0.912,0.794-1.222,1.355S213.509,6.875,213.509,7.57z"/>
	<path fill="#FFFFFF" d="M237.341,12.142h-1.212V6.988c0-1.075-0.172-1.866-0.517-2.373c-0.346-0.508-0.855-0.763-1.533-0.763
		c-0.701,0-1.327,0.25-1.881,0.744c-0.551,0.496-0.942,1.134-1.168,1.913v5.632h-1.212V6.988c0-1.087-0.166-1.88-0.499-2.383
		c-0.333-0.501-0.844-0.753-1.533-0.753c-0.688,0-1.313,0.243-1.872,0.726c-0.558,0.483-0.951,1.12-1.176,1.91v5.654h-1.212V2.891
		h1.104V5c0.394-0.721,0.895-1.277,1.507-1.667c0.612-0.39,1.293-0.583,2.041-0.583c0.771,0,1.396,0.218,1.872,0.656
		c0.475,0.437,0.767,1.01,0.873,1.719c0.428-0.78,0.942-1.371,1.542-1.772c0.601-0.402,1.28-0.603,2.041-0.603
		c0.523,0,0.966,0.095,1.328,0.283c0.362,0.189,0.654,0.458,0.874,0.808c0.218,0.349,0.38,0.767,0.481,1.257
		c0.101,0.49,0.15,1.038,0.15,1.64L237.341,12.142L237.341,12.142z"/>
	<path fill="#FFFFFF" d="M239.731,12.142v-1.748h1.051v1.748H239.731z"/>
	<path fill="#FFFFFF" d="M242.529,9.485c0-0.579,0.167-1.076,0.498-1.496c0.333-0.419,0.794-0.745,1.381-0.974
		c0.588-0.23,1.27-0.346,2.041-0.346c0.452,0,0.92,0.035,1.409,0.106c0.486,0.072,0.921,0.178,1.302,0.321V6.315
		c0-0.779-0.231-1.399-0.695-1.86s-1.104-0.69-1.927-0.69c-0.498,0-0.988,0.091-1.47,0.275c-0.481,0.185-0.984,0.455-1.507,0.813
		l-0.463-0.855c0.605-0.417,1.199-0.729,1.782-0.938c0.581-0.208,1.178-0.311,1.784-0.311c1.14,0,2.043,0.324,2.709,0.974
		s0.998,1.547,0.998,2.692v4.268c0,0.166,0.035,0.288,0.106,0.363c0.071,0.076,0.185,0.122,0.34,0.133v0.962
		c-0.131,0.013-0.245,0.024-0.34,0.036s-0.165,0.012-0.213,0c-0.298-0.012-0.523-0.108-0.676-0.285
		c-0.155-0.179-0.239-0.369-0.251-0.571l-0.019-0.677c-0.415,0.533-0.956,0.948-1.622,1.238c-0.666,0.291-1.343,0.437-2.031,0.437
		c-0.594,0-1.133-0.125-1.612-0.38c-0.483-0.255-0.857-0.597-1.124-1.027C242.662,10.481,242.529,10.005,242.529,9.485z
		 M248.749,10.192c0.131-0.165,0.231-0.324,0.302-0.479c0.072-0.152,0.108-0.286,0.108-0.405V7.966
		c-0.404-0.152-0.823-0.271-1.258-0.353c-0.435-0.081-0.87-0.123-1.311-0.123c-0.866,0-1.567,0.171-2.103,0.512
		c-0.535,0.342-0.803,0.808-0.803,1.395c0,0.342,0.09,0.663,0.267,0.963c0.177,0.302,0.44,0.547,0.785,0.742
		c0.343,0.195,0.748,0.292,1.212,0.292c0.581,0,1.126-0.112,1.631-0.337C248.087,10.834,248.476,10.547,248.749,10.192z"/>
	<path fill="#FFFFFF" d="M257.627,3.925c-0.809,0.023-1.518,0.249-2.13,0.677c-0.613,0.428-1.044,1.015-1.293,1.765v5.775h-1.212
		V2.891h1.141v2.193c0.32-0.654,0.746-1.184,1.274-1.587c0.53-0.403,1.091-0.629,1.686-0.677c0.117-0.012,0.222-0.018,0.312-0.018
		c0.089,0,0.163,0.006,0.223,0.018V3.925z"/>
</g>
</svg>
