<?xml version="1.0" encoding="utf-8"?>
<!-- Generator: Adobe Illustrator 16.0.0, SVG Export Plug-In . SVG Version: 6.00 Build 0)  -->
<!DOCTYPE svg PUBLIC "-//W3C//DTD SVG 1.1//EN" "http://www.w3.org/Graphics/SVG/1.1/DTD/svg11.dtd">
<svg version="1.1" id="Capa_1" xmlns="http://www.w3.org/2000/svg" xmlns:xlink="http://www.w3.org/1999/xlink" x="0px" y="0px"
	 width="203.601px" height="35px" viewBox="11.629 -2.5 203.601 35" enable-background="new 11.629 -2.5 203.601 35"
	 xml:space="preserve">
<g>
	<path fill="#10B981" d="M19.652,15c0,8.594,5.92,15.722,13.654,17.014c-1.319,0.316-2.695,0.486-4.107,0.486
		c-9.709,0-17.57-7.833-17.57-17.5S19.49-2.5,29.192-2.5c1.418,0,2.794,0.169,4.107,0.487C25.565-0.722,19.652,6.405,19.652,15
		 M40.639,22.077c-5.484,3.909-12.674,3.354-16.964-1.029c0.388,0.994,0.896,1.955,1.531,2.858
		c4.347,6.223,12.871,7.712,19.031,3.315c6.16-4.396,7.628-13.005,3.281-19.236c-0.635-0.911-1.362-1.715-2.153-2.413
		C48.004,11.133,46.121,18.168,40.639,22.077 M25.198,4.859c-0.099,0.071-0.19,0.149-0.282,0.219
		c4.537-1.255,9.59,0.283,12.624,4.269c2.519,3.317,3.027,7.522,1.722,11.15c4.002-3.966,4.771-10.027,1.573-14.24
		C37.308,1.635,30.314,1.007,25.198,4.859 M32.516,12.742c-0.31,0-0.564-0.254-0.564-0.564V9.354c0-0.311-0.254-0.564-0.565-0.564
		H28c-0.31,0-0.564,0.254-0.564,0.564v2.823c0,0.311-0.254,0.564-0.564,0.564h-2.823c-0.311,0-0.564,0.255-0.564,0.564v3.388
		c0,0.31,0.254,0.563,0.564,0.563h2.823c0.31,0,0.564,0.255,0.564,0.565v2.823c0,0.31,0.254,0.563,0.564,0.563h3.387
		c0.311,0,0.565-0.254,0.565-0.563v-2.823c0-0.311,0.254-0.565,0.564-0.565h2.823c0.31,0,0.564-0.253,0.564-0.563v-3.388
		c0-0.31-0.254-0.564-0.564-0.564H32.516z"/>
	<g>
		<path fill="#1E293B" d="M68.142,7.631h-0.925c-0.055-0.265-0.15-0.5-0.285-0.701c-0.135-0.202-0.299-0.371-0.492-0.509
			C66.247,6.284,66.034,6.18,65.8,6.11s-0.477-0.104-0.731-0.104c-0.462,0-0.88,0.117-1.254,0.351
			c-0.375,0.233-0.671,0.578-0.891,1.032c-0.22,0.456-0.33,1.014-0.33,1.675c0,0.662,0.11,1.22,0.33,1.674
			c0.22,0.455,0.517,0.799,0.891,1.033c0.374,0.233,0.792,0.351,1.254,0.351c0.254,0,0.497-0.036,0.731-0.105
			s0.447-0.173,0.64-0.312c0.193-0.137,0.357-0.308,0.492-0.511s0.23-0.436,0.285-0.699h0.925c-0.07,0.39-0.197,0.74-0.38,1.047
			c-0.184,0.309-0.413,0.57-0.686,0.785s-0.58,0.379-0.919,0.491c-0.339,0.111-0.702,0.167-1.087,0.167
			c-0.651,0-1.23-0.16-1.737-0.478c-0.507-0.318-0.906-0.77-1.197-1.357c-0.291-0.586-0.436-1.282-0.436-2.088
			s0.146-1.501,0.436-2.088c0.291-0.586,0.69-1.039,1.197-1.357c0.507-0.318,1.086-0.478,1.737-0.478
			c0.385,0,0.748,0.057,1.087,0.167c0.34,0.112,0.646,0.276,0.919,0.491c0.273,0.215,0.502,0.476,0.686,0.783
			C67.945,6.889,68.072,7.238,68.142,7.631z"/>
		<path fill="#1E293B" d="M76.077,9.063c0,0.806-0.146,1.502-0.437,2.088c-0.291,0.587-0.69,1.039-1.197,1.357
			c-0.507,0.318-1.086,0.478-1.737,0.478c-0.652,0-1.23-0.16-1.738-0.478c-0.507-0.318-0.906-0.77-1.197-1.357
			c-0.291-0.586-0.436-1.282-0.436-2.088s0.146-1.501,0.436-2.088c0.291-0.586,0.69-1.039,1.197-1.357
			c0.507-0.318,1.086-0.478,1.738-0.478c0.651,0,1.23,0.159,1.737,0.478c0.507,0.318,0.906,0.771,1.197,1.357
			C75.931,7.563,76.077,8.258,76.077,9.063z M75.182,9.063c0-0.661-0.11-1.219-0.33-1.675c-0.22-0.455-0.517-0.799-0.892-1.032
			c-0.374-0.233-0.792-0.351-1.254-0.351c-0.463,0-0.881,0.117-1.255,0.351S70.78,6.934,70.56,7.389
			c-0.22,0.456-0.33,1.014-0.33,1.675c0,0.662,0.11,1.22,0.33,1.674c0.22,0.455,0.517,0.799,0.891,1.033s0.792,0.351,1.255,0.351
			c0.462,0,0.88-0.118,1.254-0.351c0.375-0.233,0.671-0.578,0.892-1.033S75.182,9.726,75.182,9.063z"/>
		<path fill="#1E293B" d="M77.627,12.881V5.245h0.925v6.816h3.549v0.82H77.627z"/>
		<path fill="#1E293B" d="M83.533,12.881V5.245h4.609v0.82h-3.684v2.581h3.445v0.82h-3.445v2.595h3.744v0.82H83.533z"/>
		<path fill="#1E293B" d="M95.033,7.631c-0.082-0.25-0.19-0.476-0.322-0.677c-0.134-0.199-0.292-0.37-0.474-0.513
			c-0.182-0.141-0.39-0.25-0.621-0.325c-0.231-0.074-0.484-0.111-0.761-0.111c-0.453,0-0.864,0.117-1.234,0.351
			c-0.371,0.233-0.665,0.578-0.884,1.032c-0.219,0.456-0.328,1.014-0.328,1.675c0,0.662,0.111,1.22,0.332,1.674
			c0.221,0.455,0.521,0.799,0.899,1.033c0.378,0.233,0.803,0.351,1.275,0.351c0.438,0,0.824-0.095,1.158-0.283
			c0.334-0.187,0.596-0.452,0.783-0.797s0.281-0.75,0.281-1.217l0.284,0.059h-2.297v-0.82h2.908v0.82
			c0,0.629-0.133,1.176-0.401,1.641c-0.267,0.465-0.635,0.825-1.104,1.08c-0.469,0.254-1.006,0.382-1.613,0.382
			c-0.676,0-1.27-0.16-1.78-0.478c-0.511-0.318-0.908-0.77-1.193-1.357c-0.285-0.586-0.427-1.282-0.427-2.088
			c0-0.604,0.082-1.148,0.244-1.631c0.163-0.483,0.394-0.896,0.692-1.237c0.298-0.34,0.651-0.602,1.059-0.783
			c0.408-0.182,0.857-0.272,1.346-0.272c0.402,0,0.778,0.061,1.128,0.181c0.349,0.121,0.661,0.291,0.936,0.511
			c0.275,0.219,0.504,0.482,0.688,0.786c0.184,0.305,0.311,0.643,0.38,1.012H95.033z"/>
		<path fill="#1E293B" d="M98.538,5.245v7.636h-0.925V5.245H98.538z"/>
		<path fill="#1E293B" d="M106.83,9.063c0,0.806-0.145,1.502-0.436,2.088c-0.291,0.587-0.69,1.039-1.196,1.357
			c-0.507,0.318-1.087,0.478-1.738,0.478c-0.651,0-1.23-0.16-1.738-0.478c-0.507-0.318-0.906-0.77-1.197-1.357
			c-0.291-0.586-0.437-1.282-0.437-2.088s0.146-1.501,0.437-2.088c0.291-0.586,0.689-1.039,1.197-1.357
			c0.507-0.318,1.086-0.478,1.738-0.478c0.651,0,1.23,0.159,1.738,0.478c0.506,0.318,0.906,0.771,1.196,1.357
			C106.685,7.563,106.83,8.258,106.83,9.063z M105.936,9.063c0-0.661-0.111-1.219-0.331-1.675c-0.22-0.455-0.517-0.799-0.891-1.032
			s-0.792-0.351-1.254-0.351c-0.463,0-0.881,0.117-1.255,0.351s-0.671,0.578-0.892,1.032c-0.22,0.456-0.33,1.014-0.33,1.675
			c0,0.662,0.11,1.22,0.33,1.674c0.22,0.455,0.518,0.799,0.892,1.033s0.792,0.351,1.255,0.351c0.462,0,0.88-0.118,1.254-0.351
			s0.671-0.578,0.891-1.033S105.936,9.726,105.936,9.063z"/>
		<path fill="#1E293B" d="M113.691,12.881h-2.357V5.245h2.461c0.74,0,1.375,0.153,1.901,0.458c0.527,0.304,0.931,0.741,1.212,1.308
			c0.28,0.568,0.422,1.247,0.422,2.038c0,0.795-0.143,1.48-0.425,2.052c-0.284,0.574-0.696,1.014-1.239,1.32
			C115.125,12.728,114.467,12.881,113.691,12.881z M112.259,12.061h1.373c0.631,0,1.155-0.121,1.569-0.366
			c0.415-0.243,0.724-0.59,0.929-1.04c0.204-0.451,0.306-0.986,0.306-1.607c0-0.616-0.101-1.148-0.302-1.594
			c-0.202-0.446-0.503-0.79-0.902-1.03c-0.4-0.239-0.899-0.359-1.495-0.359h-1.477V12.061z"/>
		<path fill="#1E293B" d="M118.882,12.881V5.245h4.608v0.82h-3.684v2.581h3.445v0.82h-3.445v2.595h3.744v0.82H118.882z"/>
		<path fill="#1E293B" d="M128.113,12.881V5.245h4.579v0.82h-3.654v2.581h3.312v0.82h-3.312v3.415H128.113z"/>
		<path fill="#1E293B" d="M133.632,12.881h-0.969l2.804-7.636h0.954l2.805,7.636h-0.969l-2.283-6.428h-0.061L133.632,12.881z
			 M133.99,9.898h3.907v0.82h-3.907V9.898z"/>
		<path fill="#1E293B" d="M140.418,12.881V5.245h2.581c0.597,0,1.087,0.102,1.47,0.304s0.665,0.48,0.85,0.833
			c0.184,0.353,0.275,0.754,0.275,1.204s-0.092,0.849-0.275,1.196c-0.185,0.349-0.466,0.622-0.848,0.819
			c-0.38,0.197-0.865,0.296-1.457,0.296h-2.088V9.063h2.058c0.407,0,0.736-0.059,0.987-0.179c0.249-0.119,0.431-0.29,0.544-0.509
			c0.113-0.221,0.169-0.483,0.169-0.789c0-0.305-0.057-0.573-0.172-0.802c-0.113-0.228-0.296-0.405-0.547-0.531
			c-0.252-0.125-0.583-0.188-0.996-0.188h-1.626v6.816H140.418z M144.013,9.451l1.88,3.43h-1.074l-1.85-3.43H144.013z"/>
		<path fill="#1E293B" d="M147.13,5.245h1.104l2.595,6.338h0.09l2.595-6.338h1.104v7.636h-0.864V7.08h-0.075l-2.386,5.801h-0.836
			l-2.386-5.801h-0.075v5.801h-0.864V5.245z"/>
		<path fill="#1E293B" d="M156.778,12.881h-0.969l2.805-7.636h0.953l2.805,7.636h-0.969l-2.283-6.428h-0.061L156.778,12.881z
			 M157.138,9.898h3.906v0.82h-3.906V9.898z"/>
		<path fill="#1E293B" d="M169.352,7.631h-0.925c-0.055-0.265-0.148-0.5-0.285-0.701c-0.135-0.202-0.299-0.371-0.492-0.509
			c-0.191-0.137-0.405-0.242-0.64-0.311c-0.232-0.069-0.477-0.104-0.729-0.104c-0.463,0-0.882,0.117-1.256,0.351
			c-0.373,0.233-0.67,0.578-0.891,1.032c-0.221,0.456-0.33,1.014-0.33,1.675c0,0.662,0.109,1.22,0.33,1.674s0.518,0.799,0.891,1.033
			c0.374,0.233,0.793,0.351,1.256,0.351c0.253,0,0.497-0.036,0.729-0.105c0.234-0.069,0.448-0.173,0.64-0.312
			c0.193-0.137,0.357-0.308,0.492-0.511c0.137-0.203,0.23-0.436,0.285-0.699h0.925c-0.068,0.39-0.195,0.74-0.38,1.047
			c-0.185,0.309-0.413,0.57-0.687,0.785s-0.579,0.379-0.918,0.491c-0.34,0.111-0.702,0.167-1.087,0.167
			c-0.651,0-1.23-0.16-1.738-0.478c-0.507-0.318-0.905-0.77-1.196-1.357c-0.292-0.586-0.438-1.282-0.438-2.088
			s0.146-1.501,0.438-2.088c0.291-0.586,0.689-1.039,1.196-1.357c0.508-0.318,1.087-0.478,1.738-0.478
			c0.385,0,0.747,0.057,1.087,0.167c0.339,0.112,0.645,0.276,0.918,0.491c0.273,0.215,0.502,0.476,0.687,0.783
			C169.156,6.889,169.283,7.238,169.352,7.631z"/>
		<path fill="#1E293B" d="M170.844,12.881V5.245h4.608v0.82h-3.685v2.581h3.445v0.82h-3.445v2.595h3.745v0.82H170.844z
			 M172.738,4.47l0.909-1.73h1.029l-1.162,1.73H172.738z"/>
		<path fill="#1E293B" d="M182.135,5.245h0.925v5.056c0,0.522-0.123,0.988-0.368,1.397c-0.244,0.408-0.589,0.731-1.035,0.965
			c-0.444,0.235-0.966,0.352-1.565,0.352c-0.599,0-1.121-0.117-1.565-0.352c-0.446-0.234-0.791-0.557-1.036-0.965
			c-0.244-0.41-0.367-0.875-0.367-1.397V5.245h0.925v4.981c0,0.373,0.082,0.704,0.246,0.994c0.164,0.29,0.399,0.517,0.704,0.683
			c0.304,0.165,0.668,0.248,1.094,0.248s0.791-0.083,1.097-0.248c0.305-0.166,0.54-0.393,0.703-0.683
			c0.162-0.29,0.244-0.621,0.244-0.994V5.245z"/>
		<path fill="#1E293B" d="M184.489,6.065v-0.82h5.729v0.82h-2.4v6.816h-0.925V6.065H184.489z"/>
		<path fill="#1E293B" d="M192.575,5.245v7.636h-0.925V5.245H192.575z"/>
		<path fill="#1E293B" d="M200.567,7.631h-0.924c-0.055-0.265-0.149-0.5-0.286-0.701c-0.135-0.202-0.299-0.371-0.492-0.509
			c-0.191-0.137-0.404-0.242-0.639-0.311c-0.232-0.069-0.477-0.104-0.729-0.104c-0.464,0-0.882,0.117-1.257,0.351
			c-0.372,0.233-0.67,0.578-0.89,1.032c-0.221,0.456-0.33,1.014-0.33,1.675c0,0.662,0.109,1.22,0.33,1.674
			c0.22,0.455,0.518,0.799,0.89,1.033c0.375,0.233,0.793,0.351,1.257,0.351c0.253,0,0.497-0.036,0.729-0.105
			c0.234-0.069,0.447-0.173,0.639-0.312c0.193-0.137,0.357-0.308,0.492-0.511c0.137-0.203,0.231-0.436,0.286-0.699h0.924
			c-0.068,0.39-0.194,0.74-0.379,1.047c-0.185,0.309-0.414,0.57-0.688,0.785s-0.579,0.379-0.917,0.491
			c-0.341,0.111-0.703,0.167-1.087,0.167c-0.651,0-1.23-0.16-1.738-0.478c-0.508-0.318-0.906-0.77-1.196-1.357
			c-0.292-0.586-0.438-1.282-0.438-2.088s0.146-1.501,0.438-2.088c0.29-0.586,0.688-1.039,1.196-1.357
			c0.508-0.318,1.087-0.478,1.738-0.478c0.384,0,0.746,0.057,1.087,0.167c0.338,0.112,0.644,0.276,0.917,0.491
			c0.273,0.215,0.503,0.476,0.688,0.783C200.373,6.889,200.499,7.238,200.567,7.631z"/>
		<path fill="#1E293B" d="M208.503,9.063c0,0.806-0.146,1.502-0.437,2.088c-0.29,0.587-0.69,1.039-1.197,1.357
			c-0.506,0.318-1.086,0.478-1.736,0.478c-0.651,0-1.23-0.16-1.738-0.478c-0.508-0.318-0.906-0.77-1.196-1.357
			c-0.292-0.586-0.438-1.282-0.438-2.088s0.146-1.501,0.438-2.088c0.29-0.586,0.688-1.039,1.196-1.357
			c0.508-0.318,1.087-0.478,1.738-0.478c0.65,0,1.23,0.159,1.736,0.478c0.507,0.318,0.907,0.771,1.197,1.357
			C208.357,7.563,208.503,8.258,208.503,9.063z M207.607,9.063c0-0.661-0.109-1.219-0.33-1.675
			c-0.219-0.455-0.517-0.799-0.891-1.032s-0.793-0.351-1.254-0.351c-0.464,0-0.882,0.117-1.257,0.351
			c-0.372,0.233-0.67,0.578-0.89,1.032c-0.221,0.456-0.33,1.014-0.33,1.675c0,0.662,0.109,1.22,0.33,1.674
			c0.22,0.455,0.518,0.799,0.89,1.033c0.375,0.233,0.793,0.351,1.257,0.351c0.461,0,0.88-0.118,1.254-0.351s0.672-0.578,0.891-1.033
			C207.498,10.283,207.607,9.726,207.607,9.063z"/>
		<path fill="#1E293B" d="M214.229,7.154c-0.045-0.378-0.226-0.671-0.544-0.88c-0.317-0.209-0.709-0.313-1.17-0.313
			c-0.339,0-0.635,0.055-0.886,0.164c-0.253,0.109-0.449,0.26-0.59,0.451c-0.14,0.191-0.21,0.409-0.21,0.653
			c0,0.203,0.048,0.378,0.147,0.524c0.097,0.145,0.224,0.265,0.377,0.361c0.154,0.096,0.316,0.175,0.485,0.235
			c0.17,0.061,0.325,0.111,0.467,0.147l0.774,0.21c0.2,0.052,0.422,0.124,0.666,0.216c0.245,0.091,0.48,0.216,0.704,0.374
			c0.226,0.158,0.412,0.36,0.558,0.606c0.146,0.246,0.221,0.548,0.221,0.907c0,0.413-0.108,0.785-0.323,1.118
			c-0.214,0.333-0.528,0.598-0.938,0.793c-0.412,0.197-0.911,0.295-1.497,0.295c-0.547,0-1.021-0.087-1.42-0.265
			c-0.398-0.176-0.711-0.422-0.938-0.738c-0.228-0.315-0.357-0.682-0.386-1.1h0.953c0.025,0.29,0.123,0.526,0.294,0.714
			c0.169,0.188,0.387,0.327,0.647,0.417c0.264,0.092,0.546,0.137,0.85,0.137c0.353,0,0.67-0.058,0.95-0.173
			c0.28-0.116,0.504-0.278,0.668-0.485c0.164-0.207,0.246-0.45,0.246-0.729c0-0.253-0.071-0.459-0.213-0.619
			c-0.143-0.158-0.328-0.288-0.56-0.387c-0.23-0.099-0.481-0.187-0.75-0.261l-0.938-0.269c-0.598-0.171-1.069-0.417-1.418-0.735
			c-0.347-0.318-0.521-0.735-0.521-1.25c0-0.427,0.116-0.801,0.349-1.12c0.232-0.32,0.545-0.569,0.94-0.747
			c0.393-0.178,0.834-0.267,1.32-0.267c0.492,0,0.93,0.088,1.313,0.263c0.383,0.176,0.688,0.415,0.913,0.718
			c0.224,0.303,0.344,0.647,0.355,1.032H214.229z"/>
		<path fill="#1E293B" d="M64.354,25.481h-2.357v-7.637h2.461c0.741,0,1.375,0.154,1.902,0.458c0.527,0.305,0.931,0.74,1.212,1.309
			c0.281,0.568,0.422,1.247,0.422,2.038c0,0.795-0.142,1.479-0.425,2.052c-0.284,0.574-0.696,1.014-1.238,1.32
			C65.788,25.328,65.129,25.481,64.354,25.481z M62.922,24.661h1.372c0.632,0,1.155-0.12,1.57-0.365
			c0.415-0.244,0.725-0.591,0.928-1.039c0.204-0.451,0.306-0.987,0.306-1.607c0-0.616-0.101-1.147-0.302-1.595
			c-0.201-0.446-0.501-0.789-0.902-1.029c-0.4-0.239-0.898-0.36-1.495-0.36h-1.477V24.661z"/>
		<path fill="#1E293B" d="M69.543,25.481v-7.637h4.609v0.82h-3.684v2.582h3.445v0.82h-3.445v2.594h3.744v0.82H69.543z"/>
		<path fill="#1E293B" d="M78.344,17.845h2.58l1.775,4.326h0.089l1.775-4.326h2.58v7.637h-2.028v-4.415h-0.06l-1.701,4.356h-1.223
			l-1.7-4.386h-0.06v4.444h-2.028V17.845z"/>
		<path fill="#1E293B" d="M88.128,25.481v-7.637h5.503v1.672h-3.431v1.313h3.147v1.67h-3.147v1.313h3.416v1.67H88.128z"/>
		<path fill="#1E293B" d="M94.66,25.481v-7.637h3.296c0.566,0,1.063,0.104,1.487,0.31c0.425,0.208,0.756,0.504,0.993,0.892
			c0.236,0.389,0.354,0.854,0.354,1.395c0,0.547-0.122,1.008-0.364,1.383c-0.243,0.376-0.582,0.66-1.018,0.852
			s-0.945,0.287-1.527,0.287h-1.969v-1.611h1.551c0.243,0,0.452-0.029,0.625-0.091c0.172-0.061,0.306-0.158,0.399-0.293
			c0.093-0.135,0.14-0.311,0.14-0.526c0-0.219-0.047-0.396-0.14-0.534c-0.094-0.139-0.227-0.24-0.399-0.307
			c-0.173-0.066-0.381-0.098-0.625-0.098h-0.731v5.979H94.66z M99.135,21.978l1.909,3.504h-2.251l-1.865-3.504H99.135z"/>
		<path fill="#1E293B" d="M108.8,20.709h-2.104c-0.015-0.173-0.054-0.331-0.118-0.474c-0.063-0.142-0.15-0.265-0.26-0.367
			c-0.111-0.103-0.245-0.183-0.401-0.239c-0.157-0.055-0.334-0.083-0.533-0.083c-0.348,0-0.642,0.084-0.882,0.254
			c-0.24,0.169-0.421,0.41-0.544,0.728c-0.123,0.315-0.185,0.694-0.185,1.137c0,0.467,0.063,0.857,0.188,1.172
			s0.308,0.551,0.546,0.709c0.239,0.158,0.526,0.237,0.861,0.237c0.191,0,0.363-0.024,0.515-0.073
			c0.152-0.049,0.284-0.118,0.396-0.211c0.112-0.091,0.204-0.203,0.274-0.334c0.071-0.131,0.119-0.276,0.144-0.44l2.104,0.014
			c-0.025,0.323-0.116,0.651-0.273,0.986c-0.156,0.335-0.378,0.643-0.665,0.925c-0.287,0.283-0.642,0.509-1.064,0.681
			c-0.423,0.172-0.914,0.258-1.473,0.258c-0.701,0-1.33-0.15-1.885-0.451c-0.556-0.301-0.995-0.744-1.316-1.327
			c-0.322-0.585-0.483-1.299-0.483-2.145c0-0.85,0.164-1.566,0.492-2.15c0.328-0.582,0.771-1.022,1.328-1.322
			c0.557-0.301,1.178-0.45,1.864-0.45c0.482,0,0.926,0.066,1.331,0.197c0.405,0.132,0.761,0.323,1.066,0.576
			c0.306,0.253,0.552,0.563,0.738,0.93C108.646,19.813,108.759,20.235,108.8,20.709z"/>
		<path fill="#1E293B" d="M109.739,25.481v-7.637h5.502v1.672h-3.43v1.313h3.147v1.67h-3.147v1.313h3.416v1.67H109.739z"/>
		<path fill="#1E293B" d="M119.21,25.481h-2.938v-7.637h2.907c0.786,0,1.467,0.154,2.039,0.458c0.572,0.305,1.015,0.742,1.328,1.313
			c0.311,0.57,0.467,1.254,0.467,2.049s-0.156,1.479-0.466,2.049c-0.311,0.57-0.751,1.008-1.319,1.313
			C120.657,25.33,119.984,25.481,119.21,25.481z M118.344,23.722h0.792c0.377,0,0.699-0.061,0.966-0.183
			c0.269-0.122,0.472-0.331,0.613-0.63c0.139-0.299,0.211-0.713,0.211-1.245s-0.073-0.948-0.216-1.245
			c-0.144-0.299-0.352-0.51-0.625-0.63c-0.275-0.122-0.612-0.183-1.01-0.183h-0.731V23.722z"/>
		<path fill="#1E293B" d="M123.968,25.481v-7.637h5.503v1.672h-3.431v1.313h3.146v1.67h-3.146v1.313h3.417v1.67H123.968z"/>
		<path fill="#1E293B" d="M134.616,20.231c-0.021-0.248-0.112-0.441-0.277-0.582c-0.165-0.139-0.416-0.207-0.752-0.207
			c-0.213,0-0.389,0.024-0.524,0.075c-0.135,0.051-0.234,0.121-0.3,0.207c-0.064,0.087-0.098,0.188-0.1,0.299
			c-0.006,0.091,0.011,0.174,0.05,0.248c0.039,0.073,0.101,0.139,0.185,0.197s0.192,0.11,0.324,0.158s0.289,0.089,0.47,0.128
			l0.627,0.133c0.423,0.091,0.783,0.209,1.084,0.354c0.301,0.147,0.547,0.319,0.738,0.518c0.191,0.197,0.333,0.419,0.424,0.665
			s0.137,0.514,0.141,0.805c-0.004,0.502-0.129,0.927-0.378,1.276c-0.248,0.347-0.604,0.612-1.064,0.794
			c-0.46,0.181-1.014,0.271-1.661,0.271c-0.663,0-1.242-0.098-1.735-0.295c-0.493-0.195-0.876-0.499-1.148-0.907
			s-0.41-0.933-0.412-1.571h1.969c0.013,0.233,0.07,0.431,0.175,0.589c0.105,0.159,0.252,0.28,0.442,0.362s0.417,0.123,0.681,0.123
			c0.221,0,0.406-0.027,0.556-0.082s0.262-0.131,0.34-0.228c0.076-0.099,0.116-0.208,0.118-0.333
			c-0.002-0.116-0.04-0.219-0.113-0.308c-0.073-0.088-0.193-0.168-0.359-0.238c-0.167-0.07-0.393-0.138-0.676-0.199l-0.76-0.164
			c-0.677-0.147-1.209-0.393-1.599-0.736c-0.389-0.344-0.582-0.815-0.58-1.411c-0.002-0.484,0.128-0.909,0.39-1.274
			c0.264-0.363,0.627-0.648,1.093-0.851c0.466-0.205,1.001-0.307,1.605-0.307c0.616,0,1.149,0.104,1.6,0.309
			c0.45,0.208,0.797,0.497,1.043,0.872c0.244,0.373,0.367,0.81,0.371,1.31H134.616z"/>
	</g>
</g>
</svg>
