<?xml version="1.0" encoding="utf-8"?>
<!-- Generator: Adobe Illustrator 16.0.0, SVG Export Plug-In . SVG Version: 6.00 Build 0)  -->
<!DOCTYPE svg PUBLIC "-//W3C//DTD SVG 1.1//EN" "http://www.w3.org/Graphics/SVG/1.1/DTD/svg11.dtd">
<svg version="1.1" id="Capa_1" xmlns="http://www.w3.org/2000/svg" xmlns:xlink="http://www.w3.org/1999/xlink" x="0px" y="0px"
	 width="250px" height="250px" viewBox="-55 -55 250 250" enable-background="new -55 -55 250 250" xml:space="preserve">
<g>
	
		<rect x="-18.582" y="-18.195" transform="matrix(0.7071 -0.7071 0.7071 0.7071 -28.9949 70)" fill="#FFFFFF" width="177.163" height="176.39"/>
	
		<rect x="-13.048" y="-12.681" transform="matrix(0.7071 -0.7071 0.7071 0.7071 -28.9951 69.9996)" fill="#869773" width="166.096" height="165.361"/>
	
		<rect x="-8.435" y="-8.087" transform="matrix(0.7071 -0.7071 0.7071 0.7071 -28.9956 70.0003)" fill="#FFFFFF" width="156.869" height="156.176"/>
	<g>
		<g>
			<path fill="#343A40" d="M9.517,40.791H8.14c-0.082-0.395-0.225-0.745-0.422-1.041c-0.203-0.3-0.447-0.554-0.735-0.757
				c-0.289-0.206-0.603-0.361-0.951-0.465c-0.349-0.102-0.709-0.155-1.087-0.155c-0.687,0-1.311,0.175-1.867,0.521
				c-0.557,0.344-1,0.857-1.328,1.536c-0.327,0.676-0.492,1.506-0.492,2.491c0,0.986,0.165,1.816,0.492,2.493
				c0.329,0.679,0.77,1.189,1.328,1.535c0.556,0.348,1.18,0.521,1.867,0.521c0.377,0,0.741-0.051,1.087-0.157
				c0.348-0.102,0.666-0.257,0.951-0.462c0.288-0.204,0.531-0.458,0.735-0.759c0.202-0.302,0.34-0.648,0.422-1.042h1.377
				c-0.103,0.581-0.293,1.101-0.565,1.559c-0.274,0.457-0.615,0.848-1.019,1.168c-0.408,0.319-0.862,0.562-1.371,0.729
				c-0.504,0.167-1.043,0.25-1.614,0.25c-0.97,0-1.834-0.237-2.588-0.711c-0.752-0.474-1.346-1.146-1.782-2.018
				c-0.431-0.874-0.648-1.909-0.648-3.109c0-1.2,0.217-2.233,0.648-3.104c0.435-0.872,1.028-1.547,1.782-2.021
				c0.756-0.472,1.618-0.71,2.588-0.71c0.571,0,1.11,0.083,1.614,0.251c0.506,0.167,0.963,0.409,1.371,0.729
				c0.409,0.319,0.747,0.708,1.019,1.166C9.226,39.686,9.414,40.207,9.517,40.791z"/>
			<path fill="#343A40" d="M23.199,42.921c0,1.2-0.216,2.234-0.649,3.108c-0.433,0.874-1.025,1.545-1.781,2.019
				s-1.619,0.709-2.588,0.709c-0.968,0-1.83-0.237-2.583-0.709c-0.752-0.474-1.349-1.148-1.782-2.019
				c-0.433-0.873-0.647-1.91-0.647-3.108c0-1.2,0.216-2.235,0.647-3.106c0.432-0.872,1.024-1.547,1.782-2.019
				c0.753-0.476,1.614-0.71,2.583-0.71s1.833,0.238,2.588,0.71c0.753,0.474,1.346,1.146,1.781,2.019
				C22.983,40.686,23.199,41.725,23.199,42.921z M21.869,42.921c0-0.983-0.165-1.816-0.491-2.492
				c-0.327-0.677-0.769-1.19-1.324-1.536c-0.557-0.348-1.182-0.521-1.869-0.521c-0.687,0-1.312,0.175-1.866,0.521
				c-0.556,0.346-0.999,0.859-1.328,1.536c-0.326,0.676-0.489,1.507-0.489,2.492c0,0.986,0.163,1.815,0.489,2.492
				c0.327,0.678,0.771,1.191,1.328,1.537c0.556,0.348,1.181,0.521,1.866,0.521c0.687,0,1.313-0.172,1.869-0.521
				c0.554-0.348,0.997-0.86,1.324-1.537C21.707,44.737,21.869,43.906,21.869,42.921z"/>
			<path fill="#343A40" d="M36.397,37.239v11.365h-1.334l-6.192-8.921h-0.112v8.921h-1.376V37.239h1.334l6.215,8.945h0.108v-8.945
				H36.397z"/>
			<path fill="#343A40" d="M47.236,40.083c-0.067-0.563-0.336-1-0.812-1.311c-0.475-0.31-1.056-0.466-1.742-0.466
				c-0.503,0-0.943,0.082-1.316,0.245c-0.378,0.164-0.669,0.387-0.88,0.669c-0.208,0.287-0.313,0.61-0.313,0.971
				c0,0.303,0.073,0.563,0.221,0.781c0.146,0.215,0.336,0.394,0.563,0.537c0.228,0.145,0.47,0.261,0.719,0.35
				c0.252,0.09,0.483,0.165,0.695,0.218l1.154,0.312c0.294,0.078,0.625,0.186,0.989,0.322c0.366,0.138,0.714,0.323,1.05,0.557
				c0.336,0.234,0.61,0.537,0.826,0.905c0.22,0.365,0.327,0.813,0.327,1.346c0,0.616-0.16,1.169-0.479,1.666
				c-0.316,0.493-0.786,0.892-1.397,1.182c-0.612,0.292-1.353,0.439-2.229,0.439c-0.814,0-1.519-0.13-2.11-0.392
				c-0.595-0.261-1.06-0.63-1.4-1.099c-0.338-0.47-0.531-1.016-0.573-1.638h1.422c0.035,0.431,0.18,0.783,0.437,1.065
				c0.251,0.278,0.573,0.485,0.963,0.619c0.391,0.138,0.814,0.204,1.266,0.204c0.525,0,0.997-0.087,1.412-0.259
				c0.42-0.171,0.75-0.413,0.996-0.719c0.243-0.31,0.364-0.672,0.364-1.085c0-0.376-0.105-0.684-0.315-0.92
				c-0.211-0.238-0.489-0.429-0.829-0.577c-0.349-0.148-0.718-0.277-1.118-0.387l-1.396-0.402c-0.886-0.255-1.593-0.618-2.111-1.092
				c-0.516-0.474-0.775-1.093-0.775-1.859c0-0.637,0.173-1.191,0.52-1.668c0.347-0.475,0.811-0.846,1.397-1.109
				c0.586-0.263,1.242-0.395,1.971-0.395c0.733,0,1.382,0.129,1.953,0.392c0.568,0.262,1.021,0.616,1.356,1.068
				c0.337,0.452,0.513,0.964,0.53,1.537H47.23v-0.004L47.236,40.083L47.236,40.083z"/>
			<path fill="#343A40" d="M60.321,37.239h1.377v7.526c0,0.777-0.185,1.467-0.548,2.077c-0.365,0.608-0.881,1.087-1.538,1.438
				c-0.667,0.348-1.439,0.523-2.332,0.523c-0.891,0-1.67-0.175-2.33-0.523c-0.661-0.352-1.176-0.83-1.538-1.438
				c-0.365-0.61-0.548-1.3-0.548-2.077v-7.526h1.375v7.415c0,0.554,0.125,1.048,0.366,1.478c0.247,0.431,0.593,0.768,1.045,1.017
				c0.452,0.244,0.997,0.368,1.628,0.368s1.178-0.124,1.631-0.368c0.456-0.249,0.808-0.586,1.045-1.017
				c0.242-0.43,0.364-0.926,0.364-1.478v-7.415H60.321z"/>
			<path fill="#343A40" d="M66.326,48.604V37.239H67.7v10.144h5.283v1.221H66.326z"/>
			<path fill="#343A40" d="M74.857,38.46v-1.221h8.523v1.221h-3.575v10.144h-1.374V38.46H74.857z"/>
			<path fill="#343A40" d="M96.509,42.921c0,1.2-0.216,2.234-0.648,3.108c-0.431,0.874-1.024,1.545-1.783,2.019
				c-0.753,0.474-1.614,0.709-2.582,0.709c-0.97,0-1.829-0.237-2.584-0.709c-0.755-0.474-1.351-1.148-1.782-2.019
				c-0.431-0.873-0.646-1.91-0.646-3.108c0-1.2,0.216-2.235,0.646-3.106c0.43-0.872,1.025-1.547,1.782-2.019
				c0.755-0.476,1.614-0.71,2.584-0.71c0.971,0,1.833,0.238,2.582,0.71c0.756,0.474,1.351,1.146,1.783,2.019
				C96.293,40.686,96.509,41.725,96.509,42.921z M95.18,42.921c0-0.983-0.165-1.816-0.49-2.492c-0.329-0.677-0.772-1.19-1.325-1.536
				c-0.557-0.348-1.182-0.521-1.868-0.521s-1.307,0.175-1.867,0.521c-0.557,0.346-0.998,0.859-1.326,1.536
				c-0.329,0.676-0.485,1.507-0.485,2.492c0,0.986,0.16,1.815,0.485,2.492c0.33,0.678,0.773,1.191,1.326,1.537
				c0.561,0.348,1.181,0.521,1.867,0.521s1.312-0.172,1.868-0.521c0.557-0.348,1-0.86,1.325-1.537
				C95.015,44.737,95.18,43.906,95.18,42.921z"/>
			<path fill="#343A40" d="M100.694,48.604V37.239h3.836c0.885,0,1.613,0.15,2.188,0.452c0.566,0.3,0.989,0.717,1.266,1.241
				c0.273,0.525,0.41,1.122,0.41,1.792c0,0.669-0.137,1.262-0.41,1.782c-0.276,0.518-0.692,0.923-1.263,1.218
				c-0.563,0.294-1.287,0.441-2.169,0.441h-3.107v-1.243h3.065c0.606,0,1.095-0.087,1.465-0.264
				c0.373-0.177,0.642-0.431,0.813-0.757c0.167-0.328,0.255-0.718,0.255-1.175c0-0.455-0.088-0.852-0.259-1.193
				c-0.168-0.339-0.443-0.603-0.815-0.789c-0.37-0.188-0.865-0.281-1.479-0.281h-2.418v10.142H100.694L100.694,48.604z
				 M106.041,43.499l2.797,5.105h-1.598l-2.752-5.105H106.041z"/>
			<path fill="#343A40" d="M113.934,37.239v11.365h-1.376V37.239H113.934z"/>
			<path fill="#343A40" d="M128.146,42.921c0,1.2-0.216,2.234-0.646,3.108s-1.025,1.545-1.782,2.019
				c-0.758,0.474-1.615,0.709-2.586,0.709c-0.972,0-1.831-0.237-2.582-0.709c-0.754-0.474-1.351-1.148-1.784-2.019
				c-0.43-0.873-0.649-1.91-0.649-3.108c0-1.2,0.22-2.235,0.649-3.106c0.433-0.872,1.026-1.547,1.784-2.019
				c0.751-0.476,1.61-0.71,2.582-0.71c0.971,0,1.831,0.238,2.586,0.71c0.753,0.474,1.35,1.146,1.782,2.019
				C127.93,40.686,128.146,41.725,128.146,42.921z M126.814,42.921c0-0.983-0.162-1.816-0.488-2.492
				c-0.329-0.677-0.769-1.19-1.33-1.536c-0.551-0.348-1.178-0.521-1.865-0.521s-1.309,0.175-1.863,0.521
				c-0.557,0.346-1.004,0.859-1.328,1.536c-0.331,0.676-0.488,1.507-0.488,2.492c0,0.986,0.162,1.815,0.488,2.492
				c0.328,0.678,0.768,1.191,1.328,1.537c0.555,0.348,1.176,0.521,1.863,0.521s1.312-0.172,1.865-0.521
				c0.559-0.348,1.001-0.86,1.33-1.537C126.65,44.737,126.814,43.906,126.814,42.921z"/>
			<path fill="#343A40" d="M138.544,40.083c-0.063-0.563-0.336-1-0.806-1.311c-0.479-0.31-1.058-0.466-1.746-0.466
				c-0.5,0-0.943,0.082-1.316,0.245c-0.378,0.164-0.671,0.387-0.879,0.669c-0.209,0.287-0.313,0.61-0.313,0.971
				c0,0.303,0.072,0.563,0.222,0.781c0.143,0.215,0.331,0.394,0.56,0.537c0.228,0.145,0.472,0.261,0.72,0.35
				c0.255,0.09,0.483,0.165,0.694,0.218l1.151,0.312c0.297,0.078,0.624,0.186,0.99,0.322c0.366,0.138,0.715,0.323,1.05,0.557
				c0.338,0.234,0.615,0.537,0.828,0.905c0.221,0.365,0.328,0.813,0.328,1.346c0,0.616-0.16,1.169-0.478,1.666
				c-0.322,0.493-0.785,0.892-1.403,1.182c-0.611,0.292-1.351,0.439-2.227,0.439c-0.813,0-1.517-0.13-2.112-0.392
				c-0.594-0.261-1.064-0.63-1.401-1.099c-0.336-0.47-0.527-1.016-0.571-1.638h1.423c0.037,0.431,0.18,0.783,0.433,1.065
				c0.253,0.278,0.569,0.485,0.962,0.619c0.391,0.138,0.813,0.204,1.267,0.204c0.522,0,0.999-0.087,1.413-0.259
				c0.42-0.17,0.749-0.413,0.994-0.719c0.244-0.31,0.365-0.672,0.365-1.085c0-0.376-0.105-0.684-0.317-0.92
				c-0.211-0.238-0.487-0.429-0.83-0.577c-0.346-0.148-0.717-0.277-1.116-0.387l-1.398-0.402c-0.89-0.255-1.596-0.618-2.111-1.092
				c-0.517-0.474-0.778-1.093-0.778-1.859c0-0.637,0.175-1.191,0.521-1.668c0.343-0.475,0.813-0.846,1.399-1.109
				s1.238-0.395,1.969-0.395c0.732,0,1.382,0.129,1.949,0.392c0.571,0.262,1.025,0.616,1.358,1.068
				c0.336,0.452,0.513,0.964,0.53,1.537h-1.33v-0.004L138.544,40.083L138.544,40.083z"/>
		</g>
		<g>
			<path fill="#343A40" d="M29.574,57.613h1.646l3.859,9.435h0.135l3.862-9.435h1.642v11.366H39.43v-8.635H39.32l-3.551,8.635h-1.24
				l-3.551-8.635h-0.111v8.635h-1.283V57.613H29.574z"/>
			<path fill="#343A40" d="M45.344,68.979V57.613h6.859v1.222h-5.48v3.839h5.125v1.221h-5.125v3.862h5.567v1.222H45.344z"/>
			<path fill="#343A40" d="M60.072,68.979h-3.51V57.613h3.663c1.103,0,2.047,0.227,2.832,0.68c0.783,0.451,1.385,1.102,1.802,1.948
				c0.42,0.846,0.629,1.857,0.629,3.032c0,1.183-0.212,2.201-0.632,3.052c-0.423,0.857-1.038,1.51-1.846,1.968
				C62.205,68.75,61.223,68.979,60.072,68.979z M57.939,67.759h2.042c0.941,0,1.719-0.181,2.339-0.543
				c0.617-0.363,1.079-0.879,1.38-1.549c0.303-0.67,0.456-1.466,0.456-2.393c0-0.915-0.15-1.709-0.446-2.372
				c-0.301-0.667-0.75-1.173-1.347-1.531c-0.592-0.358-1.332-0.536-2.226-0.536h-2.194L57.939,67.759L57.939,67.759z"/>
			<path fill="#343A40" d="M71.045,57.613v11.366H69.67V57.613H71.045z"/>
			<path fill="#343A40" d="M84.818,61.167h-1.375c-0.084-0.396-0.223-0.746-0.426-1.042c-0.197-0.301-0.445-0.554-0.733-0.76
				c-0.288-0.203-0.605-0.355-0.951-0.462c-0.348-0.104-0.709-0.156-1.084-0.156c-0.688,0-1.313,0.174-1.866,0.521
				c-0.56,0.349-1.001,0.861-1.327,1.538c-0.326,0.676-0.492,1.506-0.492,2.492c0,0.985,0.166,1.815,0.492,2.492
				c0.328,0.676,0.768,1.189,1.327,1.537c0.557,0.347,1.179,0.521,1.866,0.521c0.375,0,0.741-0.053,1.084-0.155
				c0.349-0.104,0.667-0.26,0.951-0.462c0.288-0.205,0.532-0.457,0.733-0.76c0.203-0.299,0.342-0.648,0.426-1.039h1.375
				c-0.105,0.582-0.292,1.103-0.565,1.559c-0.273,0.46-0.614,0.85-1.017,1.167c-0.41,0.322-0.863,0.563-1.372,0.732
				c-0.503,0.165-1.044,0.249-1.614,0.249c-0.969,0-1.831-0.236-2.585-0.709c-0.755-0.474-1.349-1.15-1.781-2.018
				c-0.435-0.874-0.65-1.911-0.65-3.11c0-1.199,0.216-2.234,0.65-3.107c0.431-0.871,1.025-1.546,1.781-2.018
				c0.754-0.474,1.616-0.711,2.585-0.711c0.57,0,1.113,0.083,1.614,0.251c0.505,0.166,0.962,0.408,1.372,0.729
				c0.406,0.321,0.746,0.709,1.017,1.168C84.525,60.068,84.713,60.581,84.818,61.167z"/>
			<path fill="#343A40" d="M98.5,63.297c0,1.198-0.217,2.234-0.648,3.109c-0.432,0.872-1.025,1.545-1.778,2.016
				c-0.753,0.475-1.619,0.711-2.588,0.711c-0.971,0-1.83-0.237-2.583-0.711c-0.754-0.47-1.348-1.147-1.782-2.016
				c-0.431-0.874-0.651-1.91-0.651-3.109c0-1.202,0.219-2.233,0.651-3.107c0.432-0.871,1.025-1.543,1.782-2.018
				c0.753-0.474,1.612-0.711,2.583-0.711c0.969,0,1.831,0.237,2.588,0.711c0.753,0.475,1.347,1.147,1.778,2.018
				C98.283,61.064,98.5,62.099,98.5,63.297z M97.169,63.297c0-0.986-0.163-1.816-0.493-2.492c-0.326-0.677-0.767-1.189-1.322-1.538
				c-0.554-0.347-1.18-0.521-1.868-0.521c-0.688,0-1.309,0.174-1.866,0.521c-0.557,0.349-1.002,0.861-1.324,1.538
				c-0.329,0.676-0.491,1.506-0.491,2.492c0,0.985,0.162,1.815,0.491,2.492c0.325,0.676,0.768,1.189,1.324,1.537
				c0.558,0.347,1.175,0.521,1.866,0.521c0.688,0,1.314-0.175,1.868-0.521c0.556-0.348,0.998-0.86,1.322-1.537
				C97.006,65.112,97.169,64.28,97.169,63.297z"/>
			<path fill="#343A40" d="M108.898,60.455c-0.068-0.562-0.336-1.001-0.811-1.309c-0.479-0.311-1.053-0.467-1.74-0.467
				c-0.506,0-0.945,0.08-1.322,0.244c-0.371,0.163-0.668,0.384-0.875,0.669c-0.209,0.287-0.316,0.609-0.316,0.972
				c0,0.304,0.077,0.562,0.224,0.781c0.146,0.216,0.333,0.394,0.558,0.537c0.232,0.139,0.474,0.257,0.723,0.349
				c0.253,0.092,0.483,0.164,0.692,0.22l1.155,0.31c0.293,0.077,0.623,0.187,0.989,0.322c0.365,0.138,0.712,0.326,1.046,0.56
				c0.339,0.233,0.614,0.534,0.83,0.9c0.221,0.37,0.33,0.817,0.33,1.346c0,0.615-0.162,1.168-0.479,1.668
				c-0.32,0.494-0.786,0.889-1.397,1.18c-0.614,0.293-1.357,0.439-2.229,0.439c-0.816,0-1.519-0.13-2.113-0.393
				c-0.596-0.263-1.061-0.629-1.398-1.099c-0.339-0.47-0.532-1.015-0.573-1.637h1.42c0.037,0.431,0.182,0.782,0.433,1.062
				c0.256,0.281,0.576,0.488,0.967,0.622c0.391,0.135,0.813,0.205,1.262,0.205c0.527,0,1-0.089,1.413-0.261
				c0.422-0.171,0.75-0.414,0.997-0.72c0.246-0.308,0.364-0.67,0.364-1.083c0-0.377-0.105-0.684-0.315-0.923
				c-0.213-0.236-0.489-0.428-0.83-0.578c-0.345-0.146-0.717-0.28-1.116-0.387l-1.398-0.401c-0.885-0.254-1.592-0.616-2.109-1.091
				c-0.517-0.475-0.776-1.091-0.776-1.859c0-0.635,0.171-1.191,0.518-1.668c0.349-0.477,0.813-0.847,1.402-1.108
				c0.582-0.262,1.236-0.394,1.964-0.394c0.732,0,1.385,0.129,1.953,0.391c0.57,0.262,1.021,0.618,1.356,1.069
				c0.337,0.452,0.513,0.962,0.533,1.536L108.898,60.455L108.898,60.455z"/>
		</g>
	</g>
	<g>
		<path fill="#343A40" d="M96.277,103.986c0.688,0.176,1.127,0.579,1.229,1.315c0.126,0.907-0.09,1.793-0.91,2.148
			c-1.288,0.558-1.646,1.44-1.45,2.718c0.07,0.459-0.098,0.766-0.646,0.752c-0.537-0.014-0.604-0.334-0.693-0.773
			c-0.098-0.464,0.428-1.386-0.5-1.305c-0.788,0.068-1.294,0.746-0.941,1.691c-1.102-0.408-1.43-1.733-0.695-2.783
			c0.291-0.418,0.685-0.736,1.086-1.05c0.355-0.272,1.002-0.283,1.012-0.869c0.031-1.079-0.02-2.161-0.057-3.243
			c-0.002-0.083-0.21-0.233-0.313-0.229c-0.669,0.033-1.273,0.306-1.775,0.713c-0.484,0.395-0.325,0.931-0.09,1.451
			c-0.916,0.07-1.388-0.544-1.703-1.224c-0.326-0.708-0.143-1.392,0.414-1.989c0.729-0.781,1.68-1.113,2.652-1.38
			c0.679-0.188,0.923-0.526,0.879-1.231c-0.065-1.047-0.044-2.097-0.024-3.143c0.01-0.621-0.22-0.851-0.845-0.75
			c-0.826,0.133-1.628,0.321-2.333,0.799c-0.688,0.464-1.065,1.015-0.275,1.856c-1.129-0.079-1.698-0.757-2.033-1.584
			c-0.396-0.987,0.019-1.863,0.746-2.543c0.98-0.917,2.206-1.36,3.509-1.559c0.872-0.134,1.245-0.493,1.187-1.424
			c-0.101-1.515-0.119-3.034-0.094-4.551c0.021-0.856-0.336-1.103-1.1-0.974c-1.092,0.186-2.229,0.186-3.136,1.011
			c-0.963,0.88-0.985,1.872,0.033,2.715c0.357,0.296,0.739,0.573,1.064,0.822c-1.24,0.06-2.695-0.553-3.501-1.506
			c-0.763-0.906-0.729-2.352,0.031-3.3c1.227-1.537,2.972-1.924,4.758-2.294c0.597-0.119,1.557,0.229,1.72-0.5
			c0.202-0.901,0.338-1.935-0.22-2.837c-0.236-0.377-0.395-0.776-0.324-1.226c0.109-0.671,0.502-1.127,1.137-1.321
			c0.638-0.192,1.246-0.061,1.669,0.48c0.477,0.6,0.53,1.37,0.099,1.918c-0.482,0.617-0.501,1.238-0.509,1.92
			c-0.007,1.271,0.231,1.49,1.46,1.209c0.843-0.189,1.652-0.548,2.495-0.705c1.922-0.351,3.562,0.238,4.883,1.682
			c0.293,0.32,0.606,0.701,0.415,1.154c-0.202,0.475-0.669,0.304-1.053,0.258c-0.037-0.003-0.074-0.008-0.11-0.003
			c-0.485,0.052-1.197-0.106-1.363,0.4c-0.204,0.616,0.563,0.695,1.028,0.996c-0.427,0.52-0.944,0.341-1.398,0.256
			c-1.525-0.289-2.979-0.879-4.522-1.081c-1.768-0.237-1.854-0.174-1.866,1.587c-0.012,1.231,0.016,2.463-0.037,3.687
			c-0.035,0.813,0.297,1.022,1.043,0.861c0.739-0.166,1.488-0.285,2.179-0.631c1.339-0.672,1.486-1.234,0.612-2.385
			c1.487,0.164,2.505,0.988,2.672,2.16c0.184,1.291-0.584,2.408-2.115,3.028c-1.104,0.454-2.238,0.823-3.428,0.97
			c-0.707,0.093-0.994,0.45-0.971,1.166c0.033,1.007,0.012,2.019-0.021,3.03c-0.02,0.655,0.277,0.848,0.87,0.701
			c0.278-0.069,0.555-0.146,0.83-0.234c1.349-0.439,1.587-0.962,1.007-2.222c0.993,0.007,1.892,0.662,2.143,1.569
			c0.262,0.928-0.156,1.825-1.04,2.393c-0.933,0.601-1.987,0.854-3.037,1.089c-0.601,0.136-0.872,0.409-0.843,1.029
			c0.03,0.648-0.014,1.3,0.012,1.949c0.015,0.321-0.148,0.823,0.422,0.806c0.409-0.015,0.744-0.275,0.826-0.729
			c0.045-0.251,0.032-0.503-0.15-0.716v-0.003h0.004V103.986z M100.42,83.82c0.528-0.023,1.057-0.182,1.076-0.862
			c0.014-0.634-0.482-0.824-1.021-0.85c-0.59-0.021-1.123,0.172-1.134,0.85C99.334,83.554,99.801,83.789,100.42,83.82z"/>
		<g>
			<path fill="#343A40" d="M14.063,106.107h-9.11V82.431h9.019c2.436,0,4.539,0.472,6.317,1.416c1.78,0.943,3.149,2.302,4.116,4.068
				c0.968,1.769,1.453,3.887,1.453,6.353c0,2.469-0.483,4.581-1.447,6.354c-0.963,1.768-2.328,3.125-4.092,4.068
				C18.552,105.635,16.469,106.107,14.063,106.107z M11.381,100.649h2.452c1.172,0,2.17-0.189,2.998-0.565
				c0.829-0.382,1.461-1.032,1.897-1.955c0.435-0.926,0.656-2.21,0.656-3.861c0-1.649-0.224-2.938-0.667-3.858
				c-0.443-0.928-1.091-1.579-1.94-1.956c-0.853-0.379-1.894-0.563-3.125-0.563h-2.267L11.381,100.649L11.381,100.649z"/>
			<path fill="#343A40" d="M35.619,106.107V82.431h17.062v5.178H42.042v4.066h9.76v5.18h-9.76v4.065h10.591v5.18L35.619,106.107
				L35.619,106.107L35.619,106.107z"/>
			<path fill="#343A40" d="M62.675,106.107V82.431h6.429v18.493h9.568v5.18H62.675V106.107z"/>
			<path fill="#343A40" d="M117.529,106.107h-6.934l7.813-23.677h8.785l7.816,23.677h-6.938l-5.177-17.156h-0.183L117.529,106.107z
				 M116.235,96.764h13.041v4.81h-13.041V96.764z"/>
		</g>
	</g>
	
		<rect x="64.784" y="-24.081" transform="matrix(0.7071 -0.7072 0.7072 0.7071 33.8495 43.9662)" fill="#869773" width="10.416" height="10.416"/>
	
		<rect x="64.814" y="153.645" transform="matrix(0.707 -0.7072 0.7072 0.707 -91.8272 96.0602)" fill="#869773" width="10.41" height="10.419"/>
</g>
</svg>
