<?xml version="1.0" encoding="utf-8"?>
<!-- Generator: Adobe Illustrator 16.0.0, SVG Export Plug-In . SVG Version: 6.00 Build 0)  -->
<!DOCTYPE svg PUBLIC "-//W3C//DTD SVG 1.1//EN" "http://www.w3.org/Graphics/SVG/1.1/DTD/svg11.dtd">
<svg version="1.1" id="Capa_1" xmlns="http://www.w3.org/2000/svg" xmlns:xlink="http://www.w3.org/1999/xlink" x="0px" y="0px"
	 width="150px" height="150px" viewBox="-5.001 -5.001 150 150" enable-background="new -5.001 -5.001 150 150"
	 xml:space="preserve">
<g>
	
		<rect x="16.849" y="17.083" transform="matrix(-0.7071 0.7071 -0.7071 -0.7071 168.9933 70.0007)" fill="#FFFFFF" width="106.299" height="105.834"/>
	
		<rect x="20.169" y="20.391" transform="matrix(-0.7071 0.7071 -0.7071 -0.7071 168.9923 70.0003)" fill="#869773" width="99.658" height="99.217"/>
	
		<rect x="22.938" y="23.147" transform="matrix(-0.7071 0.7071 -0.7071 -0.7071 168.9933 70.001)" fill="#FFFFFF" width="94.122" height="93.705"/>
	<g>
		<g>
			<path fill="#343A40" d="M33.709,52.475h-0.826c-0.049-0.237-0.135-0.447-0.253-0.625c-0.122-0.18-0.268-0.333-0.441-0.454
				c-0.174-0.124-0.362-0.217-0.57-0.279c-0.21-0.062-0.426-0.093-0.653-0.093c-0.413,0-0.787,0.105-1.12,0.313
				c-0.334,0.207-0.6,0.515-0.798,0.922c-0.196,0.406-0.295,0.904-0.295,1.495c0,0.592,0.099,1.09,0.295,1.496
				c0.198,0.407,0.461,0.714,0.798,0.922c0.333,0.208,0.707,0.313,1.12,0.313c0.226,0,0.445-0.03,0.653-0.094
				c0.208-0.062,0.398-0.154,0.57-0.277c0.172-0.122,0.318-0.274,0.441-0.456c0.121-0.18,0.204-0.39,0.253-0.625h0.826
				c-0.061,0.349-0.175,0.66-0.338,0.935c-0.166,0.275-0.369,0.51-0.612,0.702c-0.244,0.191-0.516,0.337-0.822,0.438
				c-0.303,0.1-0.625,0.149-0.968,0.149c-0.583,0-1.101-0.142-1.553-0.426c-0.451-0.284-0.808-0.688-1.069-1.211
				c-0.258-0.524-0.39-1.146-0.39-1.865s0.131-1.34,0.39-1.863c0.261-0.523,0.617-0.927,1.069-1.212
				c0.454-0.284,0.97-0.426,1.553-0.426c0.343,0,0.666,0.05,0.968,0.151c0.303,0.1,0.578,0.245,0.822,0.437
				c0.246,0.191,0.448,0.425,0.612,0.7C33.535,51.812,33.648,52.124,33.709,52.475z"/>
			<path fill="#343A40" d="M41.919,53.752c0,0.72-0.129,1.34-0.39,1.865c-0.261,0.524-0.615,0.927-1.069,1.211
				c-0.454,0.284-0.972,0.425-1.553,0.425c-0.581,0-1.098-0.142-1.55-0.425c-0.451-0.284-0.809-0.688-1.069-1.211
				c-0.26-0.523-0.388-1.146-0.388-1.865c0-0.72,0.129-1.342,0.388-1.864c0.26-0.524,0.615-0.928,1.069-1.212
				c0.453-0.285,0.969-0.425,1.55-0.425s1.1,0.142,1.553,0.425c0.452,0.285,0.808,0.688,1.069,1.212
				C41.79,52.411,41.919,53.035,41.919,53.752z M41.121,53.752c0-0.59-0.1-1.09-0.295-1.496c-0.196-0.406-0.462-0.714-0.795-0.922
				c-0.334-0.209-0.709-0.313-1.121-0.313c-0.413,0-0.788,0.105-1.12,0.313c-0.333,0.208-0.599,0.516-0.797,0.922
				c-0.196,0.406-0.294,0.904-0.294,1.496c0,0.592,0.098,1.089,0.294,1.495c0.196,0.407,0.462,0.715,0.797,0.922
				c0.333,0.208,0.708,0.313,1.12,0.313c0.411,0,0.787-0.104,1.121-0.313c0.332-0.208,0.599-0.516,0.795-0.922
				C41.023,54.842,41.121,54.344,41.121,53.752z"/>
			<path fill="#343A40" d="M49.838,50.343v6.819h-0.8l-3.716-5.353h-0.067v5.353H44.43v-6.819h0.8l3.729,5.367h0.066v-5.367H49.838z
				"/>
			<path fill="#343A40" d="M56.342,52.049c-0.041-0.337-0.202-0.6-0.486-0.787c-0.286-0.186-0.635-0.28-1.046-0.28
				c-0.302,0-0.566,0.049-0.791,0.147c-0.227,0.098-0.401,0.232-0.527,0.402c-0.125,0.171-0.189,0.366-0.189,0.583
				c0,0.182,0.045,0.337,0.133,0.469c0.088,0.129,0.202,0.236,0.337,0.323c0.137,0.086,0.282,0.156,0.431,0.209
				c0.152,0.054,0.291,0.1,0.418,0.131l0.692,0.187c0.177,0.047,0.375,0.111,0.594,0.193c0.22,0.082,0.428,0.194,0.63,0.334
				c0.202,0.141,0.366,0.322,0.496,0.543c0.132,0.219,0.197,0.488,0.197,0.808c0,0.37-0.096,0.703-0.288,1
				c-0.19,0.297-0.472,0.535-0.838,0.709c-0.367,0.175-0.813,0.264-1.338,0.264c-0.488,0-0.911-0.078-1.266-0.235
				c-0.357-0.156-0.636-0.378-0.84-0.659c-0.203-0.282-0.318-0.61-0.344-0.982h0.853c0.021,0.259,0.108,0.469,0.263,0.639
				c0.15,0.167,0.343,0.291,0.578,0.372c0.235,0.082,0.489,0.122,0.759,0.122c0.316,0,0.6-0.053,0.849-0.155
				c0.252-0.104,0.449-0.248,0.598-0.432c0.146-0.186,0.218-0.403,0.218-0.652c0-0.226-0.063-0.41-0.188-0.552
				c-0.127-0.143-0.294-0.258-0.498-0.346c-0.209-0.089-0.431-0.167-0.671-0.233l-0.838-0.242c-0.532-0.153-0.955-0.371-1.266-0.656
				c-0.31-0.284-0.465-0.656-0.465-1.114c0-0.382,0.104-0.715,0.312-1.001c0.208-0.285,0.486-0.507,0.839-0.666
				c0.352-0.158,0.745-0.237,1.182-0.237c0.44,0,0.829,0.078,1.173,0.234c0.341,0.158,0.612,0.37,0.813,0.641
				c0.202,0.271,0.308,0.578,0.318,0.921h-0.804L56.342,52.049L56.342,52.049L56.342,52.049z"/>
			<path fill="#343A40" d="M64.192,50.343h0.827v4.516c0,0.467-0.111,0.881-0.329,1.247c-0.219,0.364-0.529,0.652-0.922,0.862
				c-0.4,0.209-0.864,0.313-1.399,0.313c-0.534,0-1.002-0.104-1.398-0.313c-0.396-0.21-0.705-0.498-0.922-0.862
				c-0.219-0.366-0.329-0.781-0.329-1.247v-4.516h0.826v4.449c0,0.332,0.074,0.629,0.22,0.887c0.147,0.259,0.355,0.461,0.627,0.61
				c0.27,0.146,0.598,0.22,0.977,0.22c0.379,0,0.707-0.075,0.979-0.22c0.273-0.149,0.485-0.353,0.627-0.61
				c0.146-0.258,0.219-0.555,0.219-0.887L64.192,50.343L64.192,50.343z"/>
			<path fill="#343A40" d="M67.796,57.162v-6.819h0.825v6.087h3.17v0.732H67.796z"/>
			<path fill="#343A40" d="M72.914,51.075v-0.732h5.114v0.732h-2.145v6.087h-0.825v-6.087H72.914z"/>
			<path fill="#343A40" d="M85.906,53.752c0,0.72-0.13,1.34-0.39,1.865s-0.614,0.927-1.071,1.211
				c-0.452,0.284-0.968,0.425-1.548,0.425c-0.583,0-1.098-0.142-1.55-0.425c-0.453-0.284-0.811-0.688-1.069-1.211
				c-0.259-0.523-0.389-1.146-0.389-1.865c0-0.72,0.13-1.342,0.389-1.864c0.258-0.524,0.615-0.928,1.069-1.212
				c0.453-0.285,0.968-0.425,1.55-0.425s1.099,0.142,1.548,0.425c0.454,0.285,0.81,0.688,1.071,1.212
				C85.775,52.411,85.906,53.035,85.906,53.752z M85.108,53.752c0-0.59-0.099-1.09-0.294-1.496
				c-0.198-0.406-0.464-0.714-0.796-0.922c-0.334-0.209-0.709-0.313-1.121-0.313s-0.784,0.105-1.12,0.313
				c-0.334,0.208-0.6,0.516-0.796,0.922c-0.198,0.406-0.292,0.904-0.292,1.496c0,0.592,0.096,1.089,0.292,1.495
				c0.198,0.407,0.463,0.715,0.796,0.922c0.336,0.208,0.708,0.313,1.12,0.313s0.787-0.104,1.121-0.313
				c0.333-0.208,0.6-0.516,0.796-0.922C85.009,54.842,85.108,54.344,85.108,53.752z"/>
			<path fill="#343A40" d="M88.417,57.162v-6.819h2.302c0.531,0,0.968,0.09,1.313,0.271c0.34,0.18,0.594,0.43,0.759,0.745
				c0.164,0.314,0.246,0.673,0.246,1.075c0,0.401-0.082,0.757-0.246,1.069c-0.166,0.311-0.416,0.554-0.757,0.73
				c-0.338,0.176-0.772,0.265-1.302,0.265h-1.864v-0.746h1.838c0.364,0,0.657-0.053,0.88-0.158c0.224-0.107,0.385-0.259,0.487-0.454
				c0.1-0.197,0.153-0.431,0.153-0.705s-0.053-0.511-0.155-0.716c-0.101-0.203-0.265-0.361-0.489-0.473
				c-0.222-0.113-0.519-0.169-0.888-0.169h-1.451v6.085L88.417,57.162L88.417,57.162z M91.625,54.099l1.678,3.063h-0.958
				l-1.651-3.063H91.625z"/>
			<path fill="#343A40" d="M96.36,50.343v6.819h-0.826v-6.819H96.36z"/>
			<path fill="#343A40" d="M104.889,53.752c0,0.72-0.131,1.34-0.389,1.865c-0.259,0.524-0.615,0.927-1.069,1.211
				c-0.455,0.284-0.97,0.425-1.552,0.425s-1.099-0.142-1.549-0.425c-0.453-0.284-0.81-0.688-1.071-1.211
				c-0.258-0.523-0.39-1.146-0.39-1.865c0-0.72,0.132-1.342,0.39-1.864c0.259-0.524,0.616-0.928,1.071-1.212
				c0.451-0.285,0.967-0.425,1.549-0.425s1.099,0.142,1.552,0.425c0.452,0.285,0.81,0.688,1.069,1.212
				C104.758,52.411,104.889,53.035,104.889,53.752z M104.089,53.752c0-0.59-0.097-1.09-0.293-1.496
				c-0.198-0.406-0.462-0.714-0.798-0.922c-0.33-0.209-0.707-0.313-1.119-0.313s-0.785,0.105-1.118,0.313
				c-0.334,0.208-0.602,0.516-0.797,0.922c-0.199,0.406-0.293,0.904-0.293,1.496c0,0.592,0.097,1.089,0.293,1.495
				c0.197,0.407,0.46,0.715,0.797,0.922c0.333,0.208,0.706,0.313,1.118,0.313s0.787-0.104,1.119-0.313
				c0.335-0.208,0.601-0.516,0.798-0.922C103.99,54.842,104.089,54.344,104.089,53.752z"/>
			<path fill="#343A40" d="M111.127,52.049c-0.038-0.337-0.201-0.6-0.484-0.787c-0.287-0.186-0.635-0.28-1.047-0.28
				c-0.299,0-0.566,0.049-0.79,0.147c-0.228,0.098-0.402,0.232-0.527,0.402c-0.125,0.171-0.188,0.366-0.188,0.583
				c0,0.182,0.044,0.337,0.134,0.469c0.085,0.129,0.199,0.236,0.335,0.323c0.137,0.086,0.283,0.156,0.433,0.209
				c0.152,0.054,0.289,0.1,0.416,0.131l0.691,0.187c0.178,0.047,0.374,0.111,0.594,0.193c0.22,0.082,0.429,0.194,0.631,0.334
				c0.202,0.141,0.368,0.322,0.496,0.543c0.132,0.219,0.196,0.488,0.196,0.808c0,0.37-0.095,0.703-0.286,1
				c-0.193,0.297-0.471,0.535-0.842,0.709c-0.366,0.175-0.811,0.264-1.336,0.264c-0.488,0-0.91-0.078-1.268-0.235
				c-0.355-0.156-0.639-0.378-0.84-0.659c-0.202-0.282-0.316-0.61-0.344-0.982h0.854c0.022,0.259,0.108,0.469,0.26,0.639
				c0.151,0.167,0.343,0.291,0.578,0.372c0.234,0.082,0.487,0.122,0.761,0.122c0.313,0,0.599-0.053,0.847-0.155
				c0.252-0.103,0.45-0.248,0.597-0.432c0.146-0.186,0.22-0.403,0.22-0.652c0-0.226-0.063-0.41-0.19-0.552
				c-0.127-0.143-0.293-0.258-0.498-0.346c-0.207-0.089-0.43-0.167-0.67-0.233l-0.84-0.242c-0.533-0.153-0.957-0.371-1.267-0.656
				c-0.31-0.284-0.466-0.656-0.466-1.114c0-0.382,0.105-0.715,0.313-1.001c0.205-0.285,0.487-0.507,0.839-0.666
				c0.352-0.158,0.743-0.237,1.182-0.237c0.439,0,0.829,0.078,1.17,0.234c0.343,0.158,0.615,0.37,0.815,0.641
				c0.201,0.271,0.307,0.578,0.317,0.921h-0.797L111.127,52.049L111.127,52.049L111.127,52.049z"/>
		</g>
		<g>
			<path fill="#343A40" d="M45.744,62.568h0.986l2.316,5.662h0.08l2.317-5.662h0.985v6.82h-0.772v-5.181h-0.066l-2.13,5.181h-0.744
				l-2.13-5.181h-0.067v5.181h-0.77v-6.82H45.744z"/>
			<path fill="#343A40" d="M55.206,69.388v-6.82h4.116v0.734h-3.29v2.304h3.076v0.732h-3.076v2.317h3.341v0.733L55.206,69.388
				L55.206,69.388z"/>
			<path fill="#343A40" d="M64.044,69.388h-2.106v-6.82h2.198c0.662,0,1.229,0.136,1.699,0.409c0.47,0.27,0.831,0.661,1.081,1.169
				c0.252,0.508,0.377,1.114,0.377,1.819c0,0.71-0.127,1.32-0.38,1.831c-0.254,0.514-0.622,0.906-1.107,1.181
				C65.323,69.25,64.734,69.388,64.044,69.388z M62.764,68.655h1.225c0.565,0,1.031-0.108,1.403-0.326
				c0.37-0.218,0.647-0.527,0.828-0.93c0.182-0.402,0.273-0.879,0.273-1.436c0-0.548-0.09-1.025-0.268-1.422
				c-0.18-0.4-0.45-0.704-0.808-0.919c-0.355-0.215-0.799-0.322-1.335-0.322h-1.317L62.764,68.655L62.764,68.655z"/>
			<path fill="#343A40" d="M70.627,62.568v6.82h-0.825v-6.82H70.627z"/>
			<path fill="#343A40" d="M78.891,64.701h-0.825c-0.05-0.238-0.134-0.448-0.256-0.625c-0.119-0.181-0.267-0.333-0.44-0.456
				c-0.172-0.122-0.363-0.213-0.57-0.277c-0.209-0.062-0.426-0.094-0.65-0.094c-0.412,0-0.787,0.105-1.12,0.313
				c-0.335,0.209-0.601,0.517-0.796,0.923c-0.196,0.405-0.296,0.903-0.296,1.495c0,0.591,0.1,1.089,0.296,1.494
				c0.197,0.406,0.46,0.714,0.796,0.922c0.334,0.208,0.708,0.313,1.12,0.313c0.225,0,0.444-0.032,0.65-0.093
				c0.209-0.062,0.4-0.156,0.57-0.278c0.173-0.123,0.319-0.273,0.44-0.456c0.122-0.179,0.205-0.389,0.256-0.623h0.825
				c-0.063,0.349-0.175,0.662-0.339,0.935c-0.164,0.276-0.369,0.51-0.61,0.701c-0.246,0.193-0.517,0.338-0.823,0.439
				c-0.302,0.099-0.626,0.149-0.968,0.149c-0.582,0-1.099-0.142-1.551-0.425c-0.453-0.284-0.81-0.69-1.068-1.21
				c-0.261-0.524-0.391-1.146-0.391-1.866c0-0.719,0.13-1.34,0.391-1.864c0.258-0.522,0.615-0.928,1.068-1.211
				c0.453-0.284,0.97-0.426,1.551-0.426c0.342,0,0.668,0.05,0.968,0.15c0.303,0.101,0.577,0.246,0.823,0.438
				c0.244,0.193,0.448,0.426,0.61,0.702C78.715,64.042,78.828,64.349,78.891,64.701z"/>
			<path fill="#343A40" d="M87.101,65.979c0,0.719-0.13,1.34-0.389,1.865c-0.26,0.522-0.615,0.927-1.068,1.209
				c-0.453,0.285-0.971,0.427-1.553,0.427s-1.098-0.142-1.549-0.427c-0.453-0.282-0.809-0.688-1.07-1.209
				c-0.259-0.524-0.391-1.146-0.391-1.865c0-0.721,0.131-1.34,0.391-1.864c0.26-0.522,0.615-0.926,1.07-1.211
				c0.452-0.284,0.967-0.426,1.549-0.426s1.099,0.142,1.553,0.426c0.453,0.285,0.808,0.688,1.068,1.211
				C86.971,64.639,87.101,65.26,87.101,65.979z M86.301,65.979c0-0.592-0.098-1.09-0.296-1.495c-0.196-0.406-0.46-0.714-0.794-0.923
				c-0.333-0.208-0.708-0.313-1.122-0.313c-0.412,0-0.785,0.105-1.12,0.313c-0.333,0.209-0.601,0.517-0.794,0.923
				c-0.198,0.405-0.296,0.903-0.296,1.495c0,0.591,0.098,1.089,0.296,1.494c0.195,0.406,0.46,0.714,0.794,0.922
				c0.334,0.208,0.706,0.313,1.12,0.313c0.413,0,0.789-0.105,1.122-0.313c0.333-0.208,0.599-0.516,0.794-0.922
				C86.203,67.067,86.301,66.567,86.301,65.979z"/>
			<path fill="#343A40" d="M93.34,64.273c-0.041-0.337-0.202-0.601-0.486-0.785c-0.287-0.187-0.632-0.281-1.044-0.281
				c-0.303,0-0.567,0.047-0.794,0.146c-0.223,0.098-0.401,0.231-0.525,0.401c-0.125,0.172-0.19,0.366-0.19,0.583
				c0,0.182,0.047,0.337,0.135,0.469c0.088,0.129,0.2,0.237,0.334,0.322c0.14,0.083,0.284,0.155,0.434,0.209
				c0.152,0.055,0.291,0.098,0.416,0.132l0.693,0.186c0.175,0.047,0.374,0.112,0.594,0.193c0.219,0.083,0.427,0.196,0.628,0.336
				c0.204,0.141,0.368,0.32,0.498,0.54c0.132,0.223,0.198,0.49,0.198,0.808c0,0.369-0.097,0.701-0.288,1
				c-0.192,0.298-0.472,0.533-0.839,0.708c-0.368,0.176-0.814,0.264-1.337,0.264c-0.489,0-0.911-0.078-1.267-0.235
				c-0.358-0.158-0.637-0.377-0.839-0.659c-0.203-0.282-0.319-0.609-0.343-0.983h0.852c0.022,0.26,0.11,0.47,0.259,0.638
				c0.154,0.168,0.346,0.293,0.58,0.373c0.235,0.081,0.488,0.123,0.757,0.123c0.316,0,0.6-0.053,0.848-0.156
				c0.253-0.104,0.451-0.249,0.598-0.433c0.148-0.185,0.22-0.402,0.22-0.649c0-0.227-0.064-0.41-0.19-0.554
				c-0.127-0.141-0.293-0.256-0.498-0.347c-0.206-0.088-0.429-0.167-0.669-0.232l-0.839-0.241c-0.531-0.152-0.955-0.37-1.266-0.655
				c-0.31-0.285-0.466-0.654-0.466-1.115c0-0.381,0.103-0.714,0.311-1c0.208-0.287,0.487-0.508,0.841-0.665
				c0.35-0.157,0.741-0.236,1.178-0.236c0.439,0,0.831,0.077,1.173,0.234c0.342,0.157,0.612,0.371,0.813,0.642
				c0.203,0.271,0.308,0.577,0.32,0.921L93.34,64.273L93.34,64.273z"/>
		</g>
	</g>
	<g>
		<path fill="#343A40" d="M85.766,90.392c0.414,0.106,0.677,0.348,0.738,0.79c0.076,0.544-0.054,1.076-0.547,1.289
			c-0.772,0.334-0.986,0.863-0.869,1.631c0.042,0.275-0.059,0.459-0.388,0.451c-0.323-0.009-0.362-0.201-0.417-0.464
			c-0.059-0.278,0.257-0.831-0.299-0.783c-0.474,0.041-0.776,0.448-0.565,1.015c-0.662-0.245-0.859-1.04-0.418-1.67
			c0.175-0.251,0.411-0.442,0.652-0.631c0.213-0.163,0.601-0.17,0.607-0.521c0.018-0.647-0.012-1.297-0.035-1.947
			c-0.001-0.049-0.126-0.14-0.188-0.137c-0.401,0.02-0.764,0.184-1.065,0.428c-0.291,0.236-0.195,0.559-0.054,0.871
			c-0.549,0.042-0.833-0.327-1.021-0.734c-0.195-0.424-0.086-0.835,0.248-1.193c0.438-0.469,1.008-0.668,1.592-0.828
			c0.407-0.112,0.554-0.316,0.527-0.738c-0.04-0.628-0.026-1.258-0.016-1.886c0.006-0.372-0.132-0.51-0.507-0.45
			c-0.496,0.079-0.977,0.192-1.399,0.479c-0.413,0.278-0.64,0.609-0.166,1.114c-0.677-0.047-1.019-0.454-1.219-0.951
			c-0.238-0.592,0.011-1.118,0.447-1.525c0.588-0.55,1.324-0.816,2.105-0.936c0.523-0.079,0.747-0.296,0.711-0.854
			c-0.06-0.909-0.071-1.821-0.056-2.73c0.012-0.515-0.202-0.662-0.66-0.584c-0.656,0.111-1.337,0.111-1.882,0.606
			c-0.578,0.528-0.591,1.124,0.02,1.63c0.215,0.177,0.444,0.344,0.639,0.493c-0.744,0.036-1.616-0.331-2.101-0.904
			c-0.458-0.543-0.437-1.411,0.02-1.979c0.734-0.922,1.782-1.154,2.854-1.376c0.358-0.072,0.934,0.138,1.032-0.3
			c0.122-0.541,0.204-1.161-0.132-1.702c-0.142-0.227-0.236-0.466-0.194-0.735c0.065-0.401,0.301-0.675,0.682-0.792
			c0.383-0.116,0.747-0.037,1.002,0.288c0.286,0.36,0.318,0.823,0.059,1.151c-0.29,0.37-0.3,0.743-0.305,1.151
			c-0.004,0.763,0.139,0.895,0.876,0.726c0.505-0.113,0.991-0.328,1.497-0.422c1.153-0.21,2.137,0.142,2.93,1.009
			c0.175,0.192,0.363,0.421,0.249,0.692c-0.122,0.285-0.401,0.183-0.632,0.155c-0.022-0.002-0.045-0.005-0.067-0.002
			c-0.292,0.031-0.718-0.064-0.818,0.24c-0.123,0.369,0.338,0.417,0.617,0.598c-0.256,0.312-0.567,0.203-0.839,0.153
			c-0.916-0.173-1.787-0.527-2.713-0.648c-1.061-0.143-1.111-0.104-1.12,0.952c-0.007,0.739,0.01,1.479-0.022,2.212
			c-0.021,0.487,0.178,0.613,0.625,0.517c0.444-0.1,0.894-0.172,1.308-0.378c0.803-0.403,0.891-0.741,0.367-1.431
			c0.893,0.099,1.503,0.593,1.604,1.296c0.109,0.775-0.352,1.446-1.27,1.817c-0.662,0.272-1.343,0.494-2.057,0.582
			c-0.423,0.056-0.597,0.27-0.582,0.699c0.019,0.605,0.006,1.212-0.014,1.819c-0.012,0.394,0.167,0.508,0.522,0.421
			c0.167-0.042,0.333-0.088,0.498-0.141c0.81-0.264,0.952-0.577,0.604-1.333c0.595,0.004,1.135,0.398,1.285,0.943
			c0.157,0.556-0.094,1.095-0.624,1.435c-0.56,0.36-1.192,0.513-1.822,0.653c-0.36,0.081-0.523,0.245-0.507,0.617
			c0.019,0.39-0.007,0.78,0.008,1.171c0.009,0.192-0.089,0.493,0.254,0.483c0.245-0.009,0.446-0.166,0.494-0.438
			c0.028-0.151,0.021-0.302-0.089-0.429v-0.002H85.766L85.766,90.392L85.766,90.392z M88.252,78.293
			c0.317-0.016,0.634-0.11,0.646-0.518c0.008-0.38-0.291-0.495-0.613-0.51c-0.354-0.014-0.674,0.103-0.68,0.51
			C87.601,78.133,87.881,78.273,88.252,78.293z"/>
		<g>
			<path fill="#343A40" d="M36.438,91.665h-5.466V77.458h5.411c1.461,0,2.723,0.283,3.791,0.85c1.068,0.566,1.89,1.381,2.47,2.441
				c0.581,1.061,0.871,2.332,0.871,3.812c0,1.481-0.29,2.749-0.868,3.812c-0.578,1.061-1.396,1.875-2.455,2.441
				C39.131,91.381,37.881,91.665,36.438,91.665z M34.827,88.39h1.472c0.704,0,1.302-0.113,1.799-0.339
				c0.497-0.229,0.877-0.619,1.138-1.172c0.261-0.555,0.393-1.327,0.393-2.317c0-0.989-0.134-1.763-0.399-2.315
				c-0.266-0.557-0.655-0.947-1.165-1.173c-0.512-0.229-1.136-0.338-1.875-0.338h-1.36L34.827,88.39L34.827,88.39z"/>
			<path fill="#343A40" d="M49.371,91.665V77.458h10.237v3.107h-6.384v2.44h5.856v3.108h-5.856v2.439h6.355v3.108L49.371,91.665
				L49.371,91.665L49.371,91.665z"/>
			<path fill="#343A40" d="M65.605,91.665V77.458h3.857v11.096h5.741v3.108h-9.598V91.665z"/>
			<path fill="#343A40" d="M98.518,91.665h-4.16l4.688-14.206h5.271l4.689,14.206h-4.162l-3.107-10.294h-0.109L98.518,91.665z
				 M97.742,86.059h7.825v2.886h-7.825V86.059z"/>
		</g>
	</g>
	
		<rect x="66.868" y="13.548" transform="matrix(-0.707 0.7073 -0.7073 -0.707 131.2666 -21.0423)" fill="#869773" width="6.25" height="6.25"/>
	
		<rect x="66.889" y="120.182" transform="matrix(-0.707 0.7072 -0.7072 -0.707 206.7171 160.9692)" fill="#869773" width="6.247" height="6.251"/>
</g>
</svg>
