<?xml version="1.0" encoding="utf-8"?>
<!-- Generator: Adobe Illustrator 16.0.0, SVG Export Plug-In . SVG Version: 6.00 Build 0)  -->
<!DOCTYPE svg PUBLIC "-//W3C//DTD SVG 1.1//EN" "http://www.w3.org/Graphics/SVG/1.1/DTD/svg11.dtd">
<svg version="1.1" id="Capa_1" xmlns="http://www.w3.org/2000/svg" xmlns:xlink="http://www.w3.org/1999/xlink" x="0px" y="0px"
	 width="290.858px" height="50px" viewBox="-29.086 -5 290.858 50" enable-background="new -29.086 -5 290.858 50"
	 xml:space="preserve">
<g>
	<path fill="#10B981" d="M-17.624,20c0,12.277,8.457,22.46,19.506,24.305C-0.003,44.758-1.969,45-3.985,45
		c-13.871,0-25.101-11.189-25.101-25s11.23-25,25.09-25c2.026,0,3.993,0.242,5.868,0.696C-9.177-2.46-17.624,7.722-17.624,20
		 M12.357,30.111C4.522,35.695-5.749,34.9-11.878,28.639c0.554,1.422,1.28,2.793,2.188,4.084
		c6.209,8.891,18.387,11.018,27.188,4.737c8.8-6.28,10.897-18.579,4.688-27.48c-0.907-1.301-1.946-2.45-3.075-3.448
		C22.879,14.476,20.189,24.526,12.357,30.111 M-9.701,5.514c-0.141,0.101-0.271,0.212-0.403,0.313
		c6.482-1.794,13.7,0.404,18.035,6.099c3.599,4.738,4.324,10.746,2.459,15.928c5.717-5.665,6.815-14.324,2.248-20.342
		C7.598,0.907-2.392,0.01-9.701,5.514 M0.753,16.774c-0.443,0-0.806-0.363-0.806-0.807v-4.032c0-0.444-0.364-0.807-0.807-0.807
		h-4.839c-0.443,0-0.806,0.363-0.806,0.807v4.032c0,0.443-0.363,0.807-0.806,0.807h-4.033c-0.443,0-0.806,0.363-0.806,0.806v4.839
		c0,0.443,0.363,0.805,0.806,0.805h4.033c0.443,0,0.806,0.364,0.806,0.808v4.032c0,0.443,0.363,0.807,0.806,0.807h4.839
		c0.443,0,0.807-0.363,0.807-0.807v-4.032c0-0.443,0.363-0.808,0.806-0.808h4.033c0.443,0,0.806-0.361,0.806-0.805v-4.839
		c0-0.443-0.363-0.806-0.806-0.806H0.753z"/>
	<g>
		<path fill="#1E293B" d="M51.648,9.474h-1.321c-0.079-0.379-0.214-0.714-0.407-1.001c-0.194-0.288-0.428-0.531-0.703-0.728
			c-0.275-0.196-0.58-0.345-0.914-0.444c-0.334-0.1-0.682-0.15-1.043-0.15c-0.661,0-1.259,0.167-1.792,0.501
			c-0.535,0.333-0.959,0.825-1.273,1.475c-0.314,0.651-0.471,1.448-0.471,2.393c0,0.945,0.157,1.742,0.471,2.392
			s0.738,1.142,1.273,1.476c0.534,0.333,1.131,0.501,1.792,0.501c0.362,0,0.709-0.05,1.043-0.149c0.334-0.1,0.639-0.248,0.914-0.445
			c0.275-0.196,0.509-0.439,0.703-0.73c0.193-0.29,0.329-0.622,0.407-0.999h1.321c-0.1,0.558-0.281,1.057-0.543,1.497
			c-0.263,0.441-0.589,0.814-0.98,1.122s-0.829,0.541-1.313,0.701c-0.485,0.16-1.003,0.239-1.553,0.239
			c-0.931,0-1.758-0.228-2.482-0.682c-0.725-0.455-1.294-1.101-1.71-1.939c-0.415-0.837-0.623-1.832-0.623-2.982
			c0-1.151,0.208-2.145,0.623-2.983c0.416-0.838,0.986-1.484,1.71-1.938c0.725-0.455,1.551-0.682,2.482-0.682
			c0.55,0,1.067,0.081,1.553,0.239c0.484,0.16,0.922,0.394,1.313,0.701c0.391,0.308,0.717,0.68,0.98,1.119
			C51.366,8.413,51.548,8.912,51.648,9.474z"/>
		<path fill="#1E293B" d="M62.982,11.52c0,1.15-0.208,2.145-0.623,2.982c-0.416,0.839-0.986,1.484-1.709,1.939
			c-0.725,0.454-1.552,0.682-2.482,0.682c-0.931,0-1.758-0.228-2.482-0.682c-0.725-0.455-1.294-1.101-1.71-1.939
			c-0.415-0.837-0.623-1.832-0.623-2.982c0-1.151,0.208-2.145,0.623-2.983c0.416-0.838,0.985-1.484,1.71-1.938
			c0.725-0.455,1.552-0.682,2.482-0.682c0.93,0,1.758,0.227,2.482,0.682c0.724,0.454,1.294,1.1,1.709,1.938
			C62.775,9.375,62.982,10.369,62.982,11.52z M61.704,11.52c0-0.944-0.158-1.742-0.472-2.393c-0.314-0.649-0.739-1.141-1.273-1.475
			c-0.534-0.334-1.132-0.501-1.792-0.501c-0.661,0-1.259,0.167-1.792,0.501c-0.535,0.333-0.959,0.825-1.273,1.475
			c-0.314,0.651-0.471,1.448-0.471,2.393c0,0.945,0.157,1.742,0.471,2.392c0.314,0.649,0.739,1.142,1.273,1.476
			c0.534,0.333,1.131,0.501,1.792,0.501c0.66,0,1.258-0.167,1.792-0.501c0.535-0.334,0.959-0.826,1.273-1.476
			C61.547,13.262,61.704,12.465,61.704,11.52z"/>
		<path fill="#1E293B" d="M65.198,16.974V6.064h1.321v9.737h5.071v1.172H65.198z"/>
		<path fill="#1E293B" d="M73.635,16.974V6.064h6.583v1.172h-5.262v3.687h4.922v1.172h-4.922v3.707h5.348v1.172H73.635z"/>
		<path fill="#1E293B" d="M90.064,9.474c-0.117-0.358-0.271-0.681-0.461-0.967c-0.19-0.285-0.416-0.529-0.677-0.732
			c-0.261-0.202-0.557-0.356-0.887-0.464c-0.331-0.106-0.692-0.16-1.087-0.16c-0.646,0-1.234,0.167-1.763,0.501
			c-0.529,0.333-0.95,0.825-1.262,1.475c-0.313,0.651-0.469,1.448-0.469,2.393c0,0.945,0.158,1.742,0.474,2.392
			c0.316,0.649,0.744,1.142,1.284,1.476c0.54,0.333,1.147,0.501,1.821,0.501c0.625,0,1.177-0.135,1.654-0.403
			c0.478-0.267,0.851-0.646,1.119-1.139s0.402-1.072,0.402-1.739l0.405,0.085h-3.281V11.52h4.154v1.172
			c0,0.898-0.19,1.68-0.572,2.344s-0.907,1.178-1.577,1.542s-1.438,0.546-2.304,0.546c-0.965,0-1.813-0.228-2.543-0.682
			c-0.729-0.455-1.298-1.101-1.705-1.939c-0.406-0.837-0.609-1.832-0.609-2.982c0-0.863,0.116-1.641,0.349-2.33
			c0.233-0.691,0.563-1.279,0.988-1.767c0.426-0.487,0.93-0.859,1.513-1.118c0.582-0.26,1.224-0.389,1.923-0.389
			c0.575,0,1.112,0.086,1.611,0.259s0.944,0.415,1.337,0.73c0.393,0.313,0.72,0.688,0.983,1.123
			c0.262,0.436,0.443,0.918,0.543,1.446H90.064z"/>
		<path fill="#1E293B" d="M95.071,6.064v10.909h-1.322V6.064H95.071z"/>
		<path fill="#1E293B" d="M106.917,11.52c0,1.15-0.208,2.145-0.624,2.982c-0.416,0.839-0.985,1.484-1.709,1.939
			c-0.724,0.454-1.552,0.682-2.482,0.682c-0.931,0-1.758-0.228-2.482-0.682c-0.725-0.455-1.295-1.101-1.71-1.939
			c-0.415-0.837-0.623-1.832-0.623-2.982c0-1.151,0.208-2.145,0.623-2.983c0.416-0.838,0.986-1.484,1.71-1.938
			c0.725-0.455,1.551-0.682,2.482-0.682c0.93,0,1.758,0.227,2.482,0.682c0.724,0.454,1.294,1.1,1.709,1.938
			C106.709,9.375,106.917,10.369,106.917,11.52z M105.638,11.52c0-0.944-0.157-1.742-0.472-2.393
			c-0.314-0.649-0.739-1.141-1.273-1.475c-0.534-0.334-1.132-0.501-1.792-0.501c-0.661,0-1.259,0.167-1.793,0.501
			c-0.535,0.333-0.959,0.825-1.273,1.475c-0.314,0.651-0.471,1.448-0.471,2.393c0,0.945,0.157,1.742,0.471,2.392
			c0.314,0.649,0.738,1.142,1.273,1.476c0.534,0.333,1.132,0.501,1.793,0.501c0.66,0,1.258-0.167,1.792-0.501
			c0.534-0.334,0.958-0.826,1.273-1.476S105.638,12.465,105.638,11.52z"/>
		<path fill="#1E293B" d="M116.718,16.974h-3.367V6.064h3.516c1.059,0,1.964,0.219,2.717,0.653c0.753,0.435,1.33,1.058,1.731,1.869
			c0.401,0.812,0.602,1.782,0.602,2.912c0,1.136-0.203,2.114-0.607,2.932c-0.405,0.819-0.994,1.448-1.769,1.886
			C118.767,16.754,117.825,16.974,116.718,16.974z M114.672,15.802h1.96c0.902,0,1.65-0.173,2.243-0.522
			c0.593-0.348,1.035-0.843,1.326-1.485c0.291-0.644,0.437-1.409,0.437-2.296c0-0.88-0.144-1.64-0.432-2.277
			c-0.287-0.637-0.717-1.128-1.289-1.471c-0.571-0.342-1.283-0.514-2.136-0.514h-2.109V15.802z"/>
		<path fill="#1E293B" d="M124.132,16.974V6.064h6.584v1.172h-5.263v3.687h4.922v1.172h-4.922v3.707h5.348v1.172H124.132z"/>
		<path fill="#1E293B" d="M137.322,16.974V6.064h6.541v1.172h-5.22v3.687h4.73v1.172h-4.73v4.879H137.322z"/>
		<path fill="#1E293B" d="M145.204,16.974h-1.385l4.006-10.909h1.363l4.007,10.909h-1.385l-3.262-9.183h-0.085L145.204,16.974z
			 M145.716,12.712h5.582v1.172h-5.582V12.712z"/>
		<path fill="#1E293B" d="M154.9,16.974V6.064h3.687c0.852,0,1.552,0.146,2.099,0.435s0.951,0.686,1.214,1.19
			c0.263,0.504,0.395,1.078,0.395,1.721c0,0.643-0.132,1.212-0.395,1.709c-0.263,0.498-0.665,0.888-1.21,1.17
			c-0.543,0.282-1.236,0.423-2.082,0.423h-2.982V11.52h2.939c0.582,0,1.053-0.085,1.41-0.256c0.356-0.17,0.615-0.413,0.777-0.727
			c0.161-0.315,0.242-0.691,0.242-1.127c0-0.437-0.082-0.819-0.246-1.146c-0.162-0.326-0.423-0.579-0.782-0.758
			c-0.358-0.179-0.832-0.27-1.422-0.27h-2.323v9.737H154.9z M160.034,12.073l2.685,4.901h-1.534l-2.642-4.901H160.034z"/>
		<path fill="#1E293B" d="M164.488,6.064h1.577l3.706,9.055h0.129l3.706-9.055h1.577v10.909h-1.235V8.686h-0.107l-3.408,8.288
			h-1.193l-3.408-8.288h-0.107v8.288h-1.235V6.064z"/>
		<path fill="#1E293B" d="M178.272,16.974h-1.385l4.007-10.909h1.362l4.006,10.909h-1.384l-3.262-9.183h-0.086L178.272,16.974z
			 M178.784,12.712h5.581v1.172h-5.581V12.712z"/>
		<path fill="#1E293B" d="M196.233,9.474h-1.32c-0.078-0.379-0.213-0.714-0.408-1.001c-0.192-0.288-0.427-0.531-0.703-0.728
			c-0.273-0.196-0.578-0.345-0.913-0.444c-0.332-0.1-0.681-0.15-1.042-0.15c-0.662,0-1.26,0.167-1.795,0.501
			c-0.532,0.333-0.957,0.825-1.271,1.475c-0.315,0.651-0.472,1.448-0.472,2.393c0,0.945,0.156,1.742,0.472,2.392
			c0.314,0.649,0.739,1.142,1.271,1.476c0.535,0.333,1.133,0.501,1.795,0.501c0.361,0,0.71-0.05,1.042-0.149
			c0.335-0.1,0.64-0.248,0.913-0.445c0.276-0.196,0.511-0.439,0.703-0.73c0.195-0.29,0.33-0.622,0.408-0.999h1.32
			c-0.098,0.558-0.278,1.057-0.542,1.497c-0.264,0.441-0.591,0.814-0.981,1.122s-0.827,0.541-1.311,0.701
			c-0.486,0.16-1.004,0.239-1.553,0.239c-0.931,0-1.758-0.228-2.483-0.682c-0.725-0.455-1.294-1.101-1.709-1.939
			c-0.417-0.837-0.625-1.832-0.625-2.982c0-1.151,0.208-2.145,0.625-2.983c0.415-0.838,0.984-1.484,1.709-1.938
			c0.726-0.455,1.553-0.682,2.483-0.682c0.549,0,1.066,0.081,1.553,0.239c0.483,0.16,0.92,0.394,1.311,0.701
			c0.391,0.308,0.718,0.68,0.981,1.119C195.954,8.413,196.135,8.912,196.233,9.474z"/>
		<path fill="#1E293B" d="M198.365,16.974V6.064h6.584v1.172h-5.264v3.687h4.922v1.172h-4.922v3.707h5.35v1.172H198.365z
			 M201.072,4.957l1.299-2.472h1.47l-1.66,2.472H201.072z"/>
		<path fill="#1E293B" d="M214.494,6.064h1.321v7.223c0,0.746-0.176,1.411-0.525,1.996c-0.349,0.583-0.842,1.044-1.479,1.379
			c-0.635,0.335-1.379,0.503-2.236,0.503c-0.854,0-1.602-0.167-2.236-0.503c-0.637-0.335-1.13-0.796-1.479-1.379
			c-0.349-0.585-0.524-1.25-0.524-1.996V6.064h1.32v7.117c0,0.532,0.117,1.006,0.352,1.419c0.234,0.414,0.571,0.739,1.006,0.976
			c0.435,0.235,0.955,0.354,1.563,0.354c0.608,0,1.131-0.119,1.567-0.354c0.435-0.237,0.771-0.562,1.004-0.976
			c0.231-0.414,0.349-0.887,0.349-1.419V6.064z"/>
		<path fill="#1E293B" d="M217.859,7.236V6.064h8.184v1.172h-3.43v9.737h-1.321V7.236H217.859z"/>
		<path fill="#1E293B" d="M229.409,6.064v10.909h-1.321V6.064H229.409z"/>
		<path fill="#1E293B" d="M240.827,9.474h-1.32c-0.078-0.379-0.213-0.714-0.408-1.001c-0.192-0.288-0.427-0.531-0.703-0.728
			c-0.273-0.196-0.578-0.345-0.913-0.444c-0.332-0.1-0.681-0.15-1.042-0.15c-0.662,0-1.26,0.167-1.795,0.501
			c-0.532,0.333-0.957,0.825-1.271,1.475c-0.315,0.651-0.472,1.448-0.472,2.393c0,0.945,0.156,1.742,0.472,2.392
			c0.314,0.649,0.739,1.142,1.271,1.476c0.535,0.333,1.133,0.501,1.795,0.501c0.361,0,0.71-0.05,1.042-0.149
			c0.335-0.1,0.64-0.248,0.913-0.445c0.276-0.196,0.511-0.439,0.703-0.73c0.195-0.29,0.33-0.622,0.408-0.999h1.32
			c-0.098,0.558-0.278,1.057-0.542,1.497c-0.264,0.441-0.591,0.814-0.981,1.122s-0.827,0.541-1.311,0.701
			c-0.486,0.16-1.004,0.239-1.553,0.239c-0.931,0-1.758-0.228-2.483-0.682c-0.725-0.455-1.294-1.101-1.709-1.939
			c-0.417-0.837-0.625-1.832-0.625-2.982c0-1.151,0.208-2.145,0.625-2.983c0.415-0.838,0.984-1.484,1.709-1.938
			c0.726-0.455,1.553-0.682,2.483-0.682c0.549,0,1.066,0.081,1.553,0.239c0.483,0.16,0.92,0.394,1.311,0.701
			c0.391,0.308,0.718,0.68,0.981,1.119C240.549,8.413,240.73,8.912,240.827,9.474z"/>
		<path fill="#1E293B" d="M252.163,11.52c0,1.15-0.208,2.145-0.623,2.982c-0.415,0.839-0.986,1.484-1.711,1.939
			c-0.723,0.454-1.551,0.682-2.48,0.682c-0.931,0-1.758-0.228-2.483-0.682c-0.725-0.455-1.294-1.101-1.709-1.939
			c-0.417-0.837-0.625-1.832-0.625-2.982c0-1.151,0.208-2.145,0.625-2.983c0.415-0.838,0.984-1.484,1.709-1.938
			c0.726-0.455,1.553-0.682,2.483-0.682c0.93,0,1.758,0.227,2.48,0.682c0.725,0.454,1.296,1.1,1.711,1.938
			C251.955,9.375,252.163,10.369,252.163,11.52z M250.884,11.52c0-0.944-0.156-1.742-0.472-2.393
			c-0.313-0.649-0.737-1.141-1.271-1.475c-0.535-0.334-1.133-0.501-1.792-0.501c-0.662,0-1.26,0.167-1.795,0.501
			c-0.532,0.333-0.957,0.825-1.271,1.475c-0.315,0.651-0.472,1.448-0.472,2.393c0,0.945,0.156,1.742,0.472,2.392
			c0.314,0.649,0.739,1.142,1.271,1.476c0.535,0.333,1.133,0.501,1.795,0.501c0.659,0,1.257-0.167,1.792-0.501
			c0.534-0.334,0.959-0.826,1.271-1.476C250.728,13.262,250.884,12.465,250.884,11.52z"/>
		<path fill="#1E293B" d="M260.344,8.792c-0.063-0.54-0.322-0.958-0.776-1.256c-0.454-0.299-1.013-0.448-1.672-0.448
			c-0.483,0-0.906,0.078-1.265,0.234c-0.361,0.156-0.643,0.371-0.843,0.645s-0.3,0.584-0.3,0.933c0,0.291,0.068,0.541,0.21,0.749
			c0.139,0.207,0.319,0.379,0.539,0.516s0.452,0.249,0.693,0.335c0.242,0.087,0.464,0.158,0.667,0.21l1.105,0.299
			c0.286,0.075,0.604,0.177,0.952,0.309c0.35,0.13,0.687,0.31,1.006,0.534c0.322,0.226,0.589,0.514,0.796,0.866
			c0.21,0.352,0.315,0.784,0.315,1.295c0,0.589-0.154,1.122-0.462,1.598c-0.305,0.476-0.754,0.854-1.34,1.134
			c-0.589,0.281-1.302,0.421-2.139,0.421c-0.781,0-1.458-0.125-2.029-0.378c-0.568-0.251-1.016-0.603-1.34-1.055
			c-0.325-0.45-0.511-0.974-0.552-1.571h1.362c0.036,0.413,0.176,0.752,0.42,1.021c0.241,0.268,0.552,0.467,0.925,0.596
			c0.376,0.131,0.779,0.195,1.214,0.195c0.503,0,0.957-0.083,1.357-0.248c0.4-0.166,0.72-0.397,0.954-0.693
			c0.234-0.295,0.352-0.643,0.352-1.042c0-0.361-0.103-0.656-0.305-0.884c-0.203-0.227-0.469-0.411-0.799-0.554
			c-0.329-0.142-0.688-0.267-1.071-0.373l-1.341-0.383c-0.854-0.245-1.528-0.596-2.026-1.05c-0.495-0.454-0.744-1.05-0.744-1.785
			c0-0.61,0.166-1.144,0.498-1.6c0.332-0.457,0.778-0.812,1.343-1.066c0.562-0.254,1.191-0.381,1.887-0.381
			c0.703,0,1.328,0.125,1.875,0.376s0.981,0.592,1.304,1.025c0.32,0.433,0.491,0.925,0.508,1.475H260.344z"/>
		<path fill="#1E293B" d="M46.236,34.975h-3.367v-10.91h3.516c1.058,0,1.964,0.219,2.716,0.653c0.753,0.435,1.33,1.059,1.732,1.869
			c0.401,0.812,0.602,1.782,0.602,2.911c0,1.137-0.203,2.114-0.607,2.933c-0.405,0.819-0.995,1.447-1.769,1.886
			C48.284,34.755,47.343,34.975,46.236,34.975z M44.19,33.803h1.96c0.902,0,1.65-0.174,2.243-0.522s1.035-0.844,1.327-1.485
			c0.291-0.644,0.436-1.409,0.436-2.297c0-0.88-0.143-1.639-0.431-2.276c-0.288-0.638-0.717-1.128-1.289-1.471
			c-0.571-0.342-1.284-0.515-2.136-0.515H44.19V33.803z"/>
		<path fill="#1E293B" d="M53.65,34.975v-10.91h6.583v1.172h-5.262v3.688h4.922v1.172h-4.922v3.707h5.348v1.172H53.65z"/>
		<path fill="#1E293B" d="M66.221,24.064h3.686l2.535,6.18h0.128l2.535-6.18h3.686v10.91h-2.897v-6.308h-0.085l-2.429,6.222h-1.747
			l-2.429-6.264h-0.085v6.35h-2.898V24.064z"/>
		<path fill="#1E293B" d="M80.198,34.975v-10.91h7.862v2.387h-4.9v1.875h4.496v2.387H83.16v1.875h4.88v2.387H80.198z"/>
		<path fill="#1E293B" d="M89.531,34.975v-10.91h4.709c0.81,0,1.518,0.148,2.125,0.442c0.607,0.296,1.08,0.72,1.417,1.273
			c0.337,0.554,0.506,1.218,0.506,1.992c0,0.781-0.174,1.44-0.52,1.976c-0.347,0.537-0.832,0.941-1.455,1.215s-1.35,0.41-2.181,0.41
			h-2.813v-2.301h2.216c0.348,0,0.646-0.043,0.893-0.131c0.247-0.086,0.437-0.226,0.57-0.417c0.133-0.192,0.2-0.443,0.2-0.752
			c0-0.313-0.066-0.566-0.2-0.765c-0.133-0.196-0.323-0.343-0.57-0.437c-0.247-0.095-0.544-0.141-0.893-0.141h-1.044v8.544H89.531z
			 M95.923,29.967l2.727,5.008h-3.217l-2.664-5.008H95.923z"/>
		<path fill="#1E293B" d="M109.73,28.156h-3.005c-0.021-0.248-0.077-0.475-0.168-0.677c-0.09-0.202-0.215-0.378-0.372-0.524
			c-0.158-0.147-0.349-0.261-0.573-0.342c-0.223-0.079-0.477-0.119-0.762-0.119c-0.497,0-0.917,0.121-1.26,0.362
			c-0.342,0.242-0.602,0.587-0.777,1.039c-0.176,0.45-0.264,0.992-0.264,1.625c0,0.667,0.09,1.226,0.269,1.675
			s0.439,0.786,0.78,1.012c0.341,0.226,0.751,0.338,1.23,0.338c0.273,0,0.519-0.034,0.736-0.104c0.216-0.069,0.405-0.17,0.564-0.301
			s0.291-0.29,0.391-0.477c0.102-0.188,0.17-0.396,0.205-0.631l3.005,0.021c-0.036,0.462-0.166,0.931-0.39,1.409
			c-0.223,0.478-0.54,0.918-0.95,1.321s-0.917,0.727-1.521,0.972c-0.604,0.245-1.305,0.367-2.104,0.367
			c-1.001,0-1.899-0.215-2.692-0.645c-0.794-0.43-1.42-1.062-1.881-1.896c-0.459-0.835-0.689-1.855-0.689-3.063
			c0-1.215,0.234-2.239,0.703-3.071c0.469-0.833,1.101-1.463,1.896-1.891c0.795-0.429,1.683-0.643,2.663-0.643
			c0.688,0,1.323,0.094,1.901,0.282c0.579,0.188,1.087,0.462,1.523,0.823c0.437,0.36,0.789,0.804,1.055,1.328
			C109.511,26.876,109.672,27.479,109.73,28.156z"/>
		<path fill="#1E293B" d="M111.072,34.975v-10.91h7.862v2.387h-4.901v1.875h4.496v2.387h-4.496v1.875h4.88v2.387H111.072z"/>
		<path fill="#1E293B" d="M124.601,34.975h-4.197v-10.91h4.155c1.123,0,2.093,0.219,2.911,0.653c0.819,0.435,1.45,1.06,1.896,1.875
			c0.446,0.814,0.668,1.791,0.668,2.928c0,1.136-0.222,2.111-0.666,2.926c-0.444,0.815-1.072,1.44-1.885,1.875
			C126.669,34.757,125.709,34.975,124.601,34.975z M123.365,32.46h1.13c0.54,0,1-0.087,1.382-0.261
			c0.382-0.174,0.673-0.475,0.874-0.9c0.2-0.426,0.301-1.02,0.301-1.778c0-0.761-0.103-1.354-0.306-1.78
			c-0.205-0.426-0.503-0.727-0.895-0.899c-0.393-0.175-0.873-0.261-1.441-0.261h-1.044V32.46z"/>
		<path fill="#1E293B" d="M131.398,34.975v-10.91h7.862v2.387h-4.901v1.875h4.496v2.387h-4.496v1.875h4.88v2.387H131.398z"/>
		<path fill="#1E293B" d="M146.611,27.475c-0.028-0.355-0.16-0.633-0.396-0.832c-0.236-0.198-0.594-0.297-1.074-0.297
			c-0.305,0-0.555,0.036-0.748,0.108c-0.194,0.073-0.336,0.172-0.429,0.296c-0.092,0.124-0.14,0.267-0.144,0.427
			c-0.007,0.13,0.017,0.249,0.072,0.354c0.055,0.105,0.143,0.199,0.264,0.282c0.12,0.083,0.274,0.158,0.463,0.227
			c0.188,0.067,0.412,0.127,0.672,0.182l0.895,0.191c0.604,0.128,1.12,0.297,1.55,0.506s0.78,0.456,1.054,0.738
			c0.273,0.281,0.477,0.599,0.605,0.95c0.13,0.352,0.195,0.735,0.2,1.15c-0.005,0.718-0.183,1.324-0.539,1.822
			c-0.354,0.497-0.861,0.875-1.52,1.134c-0.659,0.26-1.45,0.39-2.373,0.39c-0.948,0-1.775-0.141-2.479-0.421
			c-0.705-0.281-1.252-0.713-1.641-1.298c-0.39-0.583-0.585-1.332-0.589-2.245h2.813c0.018,0.335,0.102,0.615,0.25,0.843
			c0.149,0.227,0.359,0.399,0.632,0.517c0.271,0.117,0.595,0.176,0.972,0.176c0.316,0,0.581-0.039,0.794-0.117
			s0.374-0.188,0.484-0.325c0.11-0.14,0.167-0.297,0.17-0.475c-0.003-0.166-0.058-0.313-0.163-0.439
			c-0.104-0.126-0.276-0.239-0.514-0.341c-0.238-0.102-0.56-0.196-0.964-0.284l-1.086-0.234c-0.966-0.21-1.727-0.561-2.283-1.053
			c-0.556-0.491-0.832-1.164-0.828-2.017c-0.004-0.691,0.182-1.299,0.557-1.818c0.375-0.521,0.895-0.927,1.561-1.217
			c0.666-0.292,1.43-0.438,2.293-0.438c0.881,0,1.643,0.147,2.285,0.441c0.643,0.296,1.138,0.71,1.49,1.244
			c0.35,0.535,0.525,1.158,0.53,1.873H146.611z"/>
	</g>
</g>
</svg>
